<?xml version="1.0" encoding="iso-8859-1"?>
<!-- Generator: Adobe Illustrator 19.0.0, SVG Export Plug-In . SVG Version: 6.00 Build 0)  -->
<svg version="1.1" id="Capa_1" xmlns="http://www.w3.org/2000/svg" xmlns:xlink="http://www.w3.org/1999/xlink" x="0px" y="0px"
	 viewBox="0 0 512 512" style="enable-background:new 0 0 512 512;" xml:space="preserve">
<g>
	<g>
		<path d="M489.985,203.265h-11.561v-52.257c0-15.304-12.451-27.755-27.756-27.755H427.37V85.195c0-0.205-0.019-0.406-0.031-0.608
			c0.012-0.202,0.031-0.403,0.031-0.608V55.616C427.37,24.949,402.421,0,371.754,0H140.246C109.579,0,84.63,24.949,84.63,55.616
			v28.363c0,0.205,0.019,0.406,0.031,0.608c-0.012,0.202-0.031,0.403-0.031,0.608v38.057H61.331
			c-15.305,0-27.756,12.451-27.756,27.755v52.257h-11.56c-5.522,0-10,4.477-10,10v80.44c0,5.523,4.478,10,10,10h45.843
			c5.522,0,10-4.477,10-10v-80.44c0-5.523-4.478-10-10-10H53.575v-52.257c0-4.276,3.479-7.755,7.756-7.755H84.63v196.645v1.437
			v100.998c0,10.094,7.132,18.544,16.619,20.602v21.497c0,15.202,12.367,27.569,27.568,27.569h31.764
			c15.201,0,27.568-12.367,27.568-27.569v-21.009H323.85v21.009c0,15.202,12.367,27.569,27.568,27.569h31.764
			c15.201,0,27.568-12.367,27.568-27.569v-21.497c9.487-2.058,16.619-10.509,16.619-20.602v-54.068v-46.929v-1.216v-0.221V143.252
			h23.299c4.276,0,7.756,3.479,7.756,7.755v52.257h-14.282c-5.522,0-10,4.477-10,10v80.44c0,5.523,4.478,10,10,10h45.843
			c5.522,0,10-4.477,10-10v-80.44C499.985,207.742,495.508,203.265,489.985,203.265z M57.857,223.265L57.857,223.265v60.44H32.015
			v-60.44H57.857z M168.149,484.431L168.149,484.431c0,4.173-3.396,7.569-7.568,7.569h-31.764c-4.173,0-7.568-3.396-7.568-7.569
			v-21.009h46.9V484.431z M390.751,484.431c0,4.173-3.396,7.569-7.568,7.569h-31.764c-4.173,0-7.568-3.396-7.568-7.569v-21.009h46.9
			V484.431z M407.37,442.332c0,0.601-0.489,1.09-1.091,1.09h-5.528h-66.9H178.149h-66.9h-5.528c-0.602,0-1.091-0.489-1.091-1.09
			v-44.068h74.328c10.221,0,18.536-8.315,18.536-18.536v-29.83h118.311v29.83c0,10.221,8.315,18.536,18.536,18.536h73.029V442.332z
			 M105.93,378.264v-28.145h71.564v28.145H105.93z M407.37,378.264h-71.565v-28.145h71.565V378.264z M407.37,133.252v196.645
			H263.306l-52.814-60.419c-3.635-4.158-9.952-4.583-14.11-0.947c-4.158,3.635-4.583,9.952-0.948,14.11l41.308,47.256H104.63
			V133.252V95.195h302.74V133.252z M407.37,73.979H104.63V55.616C104.63,35.978,120.607,20,140.246,20h231.508
			c19.639,0,35.616,15.978,35.616,35.616V73.979z M479.985,283.705h-25.843v-60.44h25.843V283.705z"/>
	</g>
</g>
<g>
	<g>
		<path d="M287.812,407.581h-63.623c-5.522,0-10,4.477-10,10s4.478,10,10,10h63.623c5.522,0,10-4.477,10-10
			S293.334,407.581,287.812,407.581z"/>
	</g>
</g>
<g>
	<g>
		<path d="M186.439,243.99c-0.13-0.64-0.319-1.27-0.569-1.87c-0.25-0.6-0.561-1.19-0.92-1.73c-0.36-0.55-0.78-1.06-1.24-1.52
			c-0.46-0.46-0.98-0.88-1.521-1.24c-0.541-0.36-1.13-0.67-1.729-0.92c-0.601-0.25-1.23-0.44-1.87-0.57c-1.29-0.26-2.62-0.26-3.91,0
			c-0.64,0.13-1.27,0.32-1.87,0.57s-1.18,0.56-1.72,0.92c-0.55,0.36-1.06,0.78-1.521,1.24c-0.47,0.46-0.88,0.97-1.25,1.52
			c-0.359,0.54-0.67,1.13-0.92,1.73s-0.439,1.23-0.569,1.87s-0.19,1.3-0.19,1.95c0,0.66,0.061,1.31,0.19,1.96
			c0.13,0.64,0.319,1.27,0.569,1.87c0.25,0.6,0.561,1.18,0.92,1.72c0.37,0.55,0.78,1.06,1.25,1.52c0.461,0.47,0.971,0.88,1.521,1.25
			c0.54,0.36,1.12,0.67,1.72,0.92c0.601,0.25,1.23,0.44,1.87,0.57c0.65,0.13,1.3,0.19,1.96,0.19c0.65,0,1.311-0.06,1.95-0.19
			c0.64-0.13,1.27-0.32,1.87-0.57c0.6-0.25,1.189-0.56,1.729-0.92c0.54-0.37,1.061-0.78,1.521-1.25c0.46-0.46,0.88-0.97,1.24-1.52
			c0.359-0.54,0.67-1.12,0.92-1.72c0.25-0.6,0.439-1.23,0.569-1.87c0.13-0.65,0.2-1.3,0.2-1.96
			C186.639,245.29,186.569,244.63,186.439,243.99z"/>
	</g>
</g>
<g>
</g>
<g>
</g>
<g>
</g>
<g>
</g>
<g>
</g>
<g>
</g>
<g>
</g>
<g>
</g>
<g>
</g>
<g>
</g>
<g>
</g>
<g>
</g>
<g>
</g>
<g>
</g>
<g>
</g>
</svg>
