<?xml version="1.0" encoding="iso-8859-1"?>
<!-- Generator: Adobe Illustrator 19.0.0, SVG Export Plug-In . SVG Version: 6.00 Build 0)  -->
<svg version="1.1" id="Layer_1" xmlns="http://www.w3.org/2000/svg" xmlns:xlink="http://www.w3.org/1999/xlink" x="0px" y="0px"
	 viewBox="0 0 512 512" style="enable-background:new 0 0 512 512;" xml:space="preserve">
<g>
	<g>
		<path d="M477.875,136.533h-59.752c-1.946,0-3.842,0.201-5.7,0.516c-0.887-0.313-1.828-0.516-2.823-0.516h-68.267V128
			c0-4.713-3.821-8.533-8.533-8.533h-26.219c-4.154-28.908-29.075-51.2-59.115-51.2s-54.96,22.292-59.115,51.2h-26.219
			c-4.713,0-8.533,3.821-8.533,8.533v8.533H42.617c-14.088,0-25.55,11.483-25.55,25.6c0,14.117,11.462,25.6,25.55,25.6H153.6v9.39
			c-19.45,3.955-34.133,21.193-34.133,41.798v162.158c0,23.519,19.127,42.654,42.64,42.654h170.719
			c23.513,0,42.642-19.135,42.642-42.654V238.921c0-20.605-14.683-37.842-34.133-41.797v-9.39H384v76.8
			c0,18.821,15.308,34.133,34.123,34.133h59.752c18.817,0,34.125-15.312,34.125-34.133v-93.865
			C512,151.846,496.692,136.533,477.875,136.533z M247.467,85.333c20.605,0,37.843,14.682,41.806,34.133H205.66
			C209.624,100.015,226.861,85.333,247.467,85.333z M170.667,179.2v-34.133v-8.533h153.6v8.533V179.2v17.067h-153.6V179.2z
			 M42.617,170.667c-4.756,0-8.483-3.748-8.483-8.533c0-4.706,3.806-8.533,8.483-8.533H153.6v17.067H42.617z M358.4,238.921v162.158
			c0,14.108-11.473,25.588-25.575,25.588H162.106c-14.1,0-25.573-11.479-25.573-25.587V238.921
			c0-14.108,11.473-25.587,25.573-25.587h0.027H332.8h0.025C346.927,213.333,358.4,224.813,358.4,238.921z M384,170.667h-42.667
			V153.6h47.284C385.7,158.628,384,164.446,384,170.667z M494.933,264.533c0,9.41-7.652,17.067-17.058,17.067h-59.752
			c-9.404,0-17.056-7.656-17.056-17.067v-93.865c0-9.413,7.652-17.069,17.056-17.069h59.752c9.406,0,17.058,7.656,17.058,17.069
			V264.533z"/>
	</g>
</g>
<g>
	<g>
		<path d="M49.688,217.017c-1.594-2.306-4.217-3.683-7.021-3.683s-5.427,1.377-7.021,3.683C29.694,225.633,0,269.658,0,290.133
			C0,313.66,19.14,332.8,42.667,332.8s42.667-19.14,42.667-42.667C85.333,269.658,55.64,225.633,49.688,217.017z M42.667,315.733
			c-14.117,0-25.6-11.483-25.6-25.6c0-9.321,13.319-33.644,25.6-52.835c12.281,19.192,25.6,43.515,25.6,52.835
			C68.267,304.25,56.783,315.733,42.667,315.733z"/>
	</g>
</g>
<g>
</g>
<g>
</g>
<g>
</g>
<g>
</g>
<g>
</g>
<g>
</g>
<g>
</g>
<g>
</g>
<g>
</g>
<g>
</g>
<g>
</g>
<g>
</g>
<g>
</g>
<g>
</g>
<g>
</g>
</svg>
