<?xml version="1.0" encoding="iso-8859-1"?>
<!-- Generator: Adobe Illustrator 19.0.0, SVG Export Plug-In . SVG Version: 6.00 Build 0)  -->
<svg version="1.1" id="Capa_1" xmlns="http://www.w3.org/2000/svg" xmlns:xlink="http://www.w3.org/1999/xlink" x="0px" y="0px"
	 viewBox="0 0 512 512" style="enable-background:new 0 0 512 512;" xml:space="preserve">
<g>
	<g>
		<path d="M473.5,424.763V87.237c17.422-6.213,30-22.707,30-42.237c0-24.814-20.186-45-45-45c-24.814,0-45,20.186-45,45
			c0,19.53,12.578,36.024,30,42.237V242h-105V87.237c17.422-6.213,30-22.707,30-42.237c0-24.814-20.186-45-45-45
			c-24.814,0-45,20.186-45,45c0,19.53,12.578,36.024,30,42.237V242h-105V87.237c17.422-6.213,30-22.707,30-42.237
			c0-24.814-20.186-45-45-45c-24.814,0-45,20.186-45,45c0,19.53,12.578,36.024,30,42.237V242h-90c-8.276,0-15-6.724-15-15V87.237
			c17.422-6.213,30-22.707,30-42.237c0-24.814-20.186-45-45-45c-24.814,0-45,20.186-45,45c0,19.53,12.578,36.024,30,42.237V227
			c0,24.814,20.186,45,45,45h90v152.763c-17.422,6.213-30,22.707-30,42.237c0,24.814,20.186,45,45,45c24.814,0,45-20.186,45-45
			c0-19.53-12.578-36.024-30-42.237V272h105v152.763c-17.422,6.213-30,22.707-30,42.237c0,24.814,20.186,45,45,45
			c24.814,0,45-20.186,45-45c0-19.53-12.578-36.024-30-42.237V272h105v152.763c-17.422,6.213-30,22.707-30,42.237
			c0,24.814,20.186,45,45,45c24.814,0,45-20.186,45-45C503.5,447.47,490.922,430.976,473.5,424.763z"/>
	</g>
</g>
<g>
</g>
<g>
</g>
<g>
</g>
<g>
</g>
<g>
</g>
<g>
</g>
<g>
</g>
<g>
</g>
<g>
</g>
<g>
</g>
<g>
</g>
<g>
</g>
<g>
</g>
<g>
</g>
<g>
</g>
</svg>
