<?xml version="1.0" encoding="iso-8859-1"?>
<!-- Generator: Adobe Illustrator 17.1.0, SVG Export Plug-In . SVG Version: 6.00 Build 0)  -->
<!DOCTYPE svg PUBLIC "-//W3C//DTD SVG 1.1//EN" "http://www.w3.org/Graphics/SVG/1.1/DTD/svg11.dtd">
<svg version="1.1" id="Capa_1" xmlns="http://www.w3.org/2000/svg" xmlns:xlink="http://www.w3.org/1999/xlink" x="0px" y="0px"
	 viewBox="0 0 423.504 423.504" style="enable-background:new 0 0 423.504 423.504;" xml:space="preserve">
<path d="M113.656,315.454c0,4.971-4.029,9-9,9H84.163c-4.971,0-9-4.029-9-9s4.029-9,9-9h20.493
	C109.627,306.454,113.656,310.483,113.656,315.454z M86.274,227.405L2.636,143.764c-3.515-3.515-3.514-9.214,0-12.729l83.639-83.639
	c3.515-3.514,9.213-3.514,12.728,0l83.64,83.639c1.688,1.688,2.636,3.978,2.636,6.364v83.641c0,4.971-4.029,9-9,9h-83.64
	C90.251,230.04,87.962,229.092,86.274,227.405z M21.728,137.4l74.638,74.641h70.912v-70.913l-74.64-74.639L21.728,137.4z
	 M192.025,270.962h10.122c4.971,0,9-4.029,9-9s-4.029-9-9-9h-10.122c-4.971,0-9,4.029-9,9S187.054,270.962,192.025,270.962z
	 M137.551,191.901c4.971,0,9-4.029,9-9s-4.029-9-9-9h-0.033c-4.971,0-8.984,4.029-8.984,9S132.581,191.901,137.551,191.901z
	 M300.77,336.286c0,4.971-4.029,9-9,9h-51.964c-4.138,19.104-21.172,33.457-41.497,33.457c-20.843,0-38.226-15.097-41.789-34.93
	c-7.213-2.285-13.163-7.099-16.357-13.521c-1.597-3.199-2.41-6.62-2.41-10.154v-60.013c0-4.971,4.029-9,9-9s9,4.029,9,9v60.013
	c0,0.719,0.175,1.434,0.521,2.127c0.308,0.617,0.765,1.244,1.36,1.836c5.25-17.489,21.498-30.269,40.674-30.269
	c20.323,0,37.357,14.354,41.497,33.454h51.964C296.74,327.286,300.77,331.315,300.77,336.286z M222.766,336.287
	c0-13.484-10.971-24.455-24.457-24.455c-13.419,0-24.348,10.862-24.456,24.255c0.002,0.111,0.001,0.224,0,0.336
	c0.073,13.423,11.016,24.32,24.456,24.32C211.794,360.743,222.766,349.772,222.766,336.287z M423.467,300.779l-0.026,5.945
	c-0.019,3.783-0.039,8.098-0.039,13.413c0,10.763-7.741,20.082-18.655,23.626c-3.542,19.856-20.937,34.979-41.796,34.979
	c-23.411,0-42.457-19.046-42.457-42.456s19.046-42.455,42.457-42.455c19.149,0,35.377,12.741,40.65,30.193
	c1.129-1.144,1.801-2.493,1.801-3.888c0-5.35,0.021-9.692,0.039-13.499l0.026-5.939c0.033-7.515,0.075-16.866-0.028-21.417
	c-0.074-3.287-0.163-5.984-0.394-8.317H266.589c-3.229,0-10.794,0-33.942-22.876c-7.052-6.97-21.071-21.801-23.651-28.048
	c-1.897-4.594,0.29-9.856,4.883-11.753c4.53-1.869,9.697,0.225,11.665,4.675c1.224,2.192,8.543,11.172,19.151,21.724
	c13.36,13.291,20.46,17.595,22.394,18.278h127.842c-2.895-2.775-6.607-6.064-11.377-10.291c-2.478-2.194-5.198-4.605-8.187-7.287
	c-2.178-1.953-4.348-4.026-6.446-6.031c-3.061-2.925-6.226-5.949-9.522-8.709c-2.907-2.436-5.658-4.752-8.275-6.956
	c-33.401-28.124-42.378-35.684-70.547-35.684h-62.132c-4.971,0-9-4.029-9-9s4.029-9,9-9h62.132
	c34.737,0,48.614,11.685,82.141,39.915c2.605,2.194,5.346,4.501,8.239,6.925c3.747,3.138,7.129,6.369,10.399,9.494
	c2.09,1.997,4.064,3.883,6.032,5.648c2.958,2.654,5.65,5.04,8.103,7.212c21.571,19.112,27.369,24.249,27.944,49.674
	C423.543,283.669,423.501,293.156,423.467,300.779z M387.405,336.194c-0.051-13.441-11.002-24.362-24.455-24.362
	c-13.485,0-24.457,10.971-24.457,24.455c0,13.485,10.972,24.456,24.457,24.456c13.478,0,24.444-10.961,24.455-24.438
	C387.405,336.268,387.405,336.231,387.405,336.194z M362.96,327.287h-0.021c-4.971,0-8.989,4.029-8.989,9s4.04,9,9.011,9
	s9-4.029,9-9S367.931,327.287,362.96,327.287z M104.656,274.129H58.827c-4.971,0-9,4.029-9,9s4.029,9,9,9h45.829
	c4.971,0,9-4.029,9-9S109.627,274.129,104.656,274.129z M198.321,327.287h-0.023c-4.971,0-8.988,4.029-8.988,9s4.041,9,9.012,9
	s9-4.029,9-9S203.292,327.287,198.321,327.287z"/>
<g>
</g>
<g>
</g>
<g>
</g>
<g>
</g>
<g>
</g>
<g>
</g>
<g>
</g>
<g>
</g>
<g>
</g>
<g>
</g>
<g>
</g>
<g>
</g>
<g>
</g>
<g>
</g>
<g>
</g>
</svg>
