<?xml version="1.0" encoding="iso-8859-1"?>
<!-- Generator: Adobe Illustrator 19.0.0, SVG Export Plug-In . SVG Version: 6.00 Build 0)  -->
<svg version="1.1" id="Layer_1" xmlns="http://www.w3.org/2000/svg" xmlns:xlink="http://www.w3.org/1999/xlink" x="0px" y="0px"
	 viewBox="0 0 512 512" style="enable-background:new 0 0 512 512;" xml:space="preserve">
<g>
	<g>
		<path d="M373.522,420.652c3.9-5.551,6.211-12.297,6.211-19.585c0-17.563-13.313-32.06-30.358-33.921
			c3.003-5.076,4.758-10.97,4.758-17.279c0-17.521-13.304-31.985-30.358-33.902c3.003-5.08,4.758-10.981,4.758-17.298
			c0-18.821-15.309-34.133-34.128-34.133H294.4V153.6c0-0.377-0.064-0.737-0.111-1.101c25.441-13.692,42.778-40.573,42.778-71.432
			C337.067,36.367,300.7,0,256,0s-81.067,36.367-81.067,81.067c0,30.859,17.336,57.74,42.778,71.432
			c-0.047,0.364-0.111,0.724-0.111,1.101v110.933h-0.005c-18.819,0-34.128,15.312-34.128,34.133c0,6.317,1.755,12.218,4.758,17.298
			c-17.055,1.917-30.358,16.381-30.358,33.902c0,6.309,1.755,12.203,4.758,17.279c-17.045,1.861-30.358,16.358-30.358,33.921
			c0,7.288,2.311,14.034,6.211,19.585c-18.48,6.313-31.811,23.831-31.811,44.415v38.4c0,4.713,3.821,8.533,8.533,8.533h281.6
			c4.713,0,8.533-3.821,8.533-8.533v-38.4C405.333,444.483,392.003,426.964,373.522,420.652z M192,81.067c0-35.29,28.71-64,64-64
			s64,28.71,64,64c0,35.29-28.71,64-64,64S192,116.356,192,81.067z M277.333,159.265v105.269h-42.667V159.265
			c6.802,1.858,13.95,2.869,21.333,2.869S270.531,161.122,277.333,159.265z M217.595,281.6h8.538h59.733h8.539
			c9.407,0,17.062,7.656,17.062,17.067s-7.654,17.067-17.062,17.067h-76.81c-9.407,0-17.062-7.656-17.062-17.067
			S208.188,281.6,217.595,281.6z M192.075,332.8h25.52h76.81h25.52c9.452,0,17.142,7.656,17.142,17.067s-7.69,17.067-17.142,17.067
			h-127.85c-9.452,0-17.142-7.656-17.142-17.067S182.623,332.8,192.075,332.8z M166.337,384h25.738h127.85h25.738
			c9.376,0,17.004,7.656,17.004,17.067c0,9.41-7.628,17.067-17.004,17.067H166.337c-9.376,0-17.004-7.656-17.004-17.067
			C149.333,391.656,156.962,384,166.337,384z M388.267,494.933H123.733v-29.867c0-16.469,13.406-29.867,29.884-29.867h12.72h179.325
			h12.72c16.478,0,29.884,13.398,29.884,29.867V494.933z"/>
	</g>
</g>
<g>
</g>
<g>
</g>
<g>
</g>
<g>
</g>
<g>
</g>
<g>
</g>
<g>
</g>
<g>
</g>
<g>
</g>
<g>
</g>
<g>
</g>
<g>
</g>
<g>
</g>
<g>
</g>
<g>
</g>
</svg>
