<?xml version="1.0" encoding="iso-8859-1"?>
<!-- Generator: Adobe Illustrator 16.0.0, SVG Export Plug-In . SVG Version: 6.00 Build 0)  -->
<!DOCTYPE svg PUBLIC "-//W3C//DTD SVG 1.1//EN" "http://www.w3.org/Graphics/SVG/1.1/DTD/svg11.dtd">
<svg version="1.1" id="Capa_1" xmlns="http://www.w3.org/2000/svg" xmlns:xlink="http://www.w3.org/1999/xlink" x="0px" y="0px"
	 width="479.165px" height="479.165px" viewBox="0 0 479.165 479.165" style="enable-background:new 0 0 479.165 479.165;"
	 xml:space="preserve">
<g>
	<g id="Layer_3_38_">
		<g>
			<path d="M454.802,195.404c-9.625-13.042-14.316-20.965-39.703-38.896c-24.699-17.445-67.108-38.24-128.878-38.24
				c-68.672,0-110.937,21.8-134.3,40.088c-19.219,15.044-29.273,30.28-33.354,37.528c-37.676,0.136-64.132,0.226-67.988,0.226
				c-58.657,0-77.115,112.434,3.828,112.434c3.374,0,5.621,0.158,11.521,0.268c1.302-31.836,27.595-57.336,59.742-57.336
				c32.183,0,58.495,25.554,59.746,57.434c52.424,0,107.127,0,124.674,0c0.903-32.383,27.508-58.453,60.104-58.453
				c32.541,0,59.109,25.979,60.1,58.282C505.379,303.968,477.33,225.929,454.802,195.404z M143.094,195.794
				c4.851-6.312,12.107-14.271,22.407-22.176c26.072-20.01,61.277-31.768,102.596-34.4v56.111
				C224.728,195.491,180.375,195.657,143.094,195.794z M263.622,234.78h-21.527c-2.798,0-5.064-2.268-5.064-5.065
				c0-2.798,2.267-5.065,5.064-5.065h21.527c2.798,0,5.064,2.268,5.064,5.065S266.42,234.78,263.622,234.78z M370.148,194.942
				c-26.501,0.101-57.161,0.217-88.803,0.336v-56.586c1.618-0.027,3.241-0.042,4.875-0.042c30.808,0,58.899,5.378,83.928,16.028
				V194.942z M383.397,194.891V160.96c6.609,3.47,12.981,7.339,19.106,11.61c11.36,7.922,19.825,15.905,25.612,22.15
				C416.305,194.765,401.026,194.824,383.397,194.891z"/>
			<path d="M125.672,261.666c-27.355,0-49.613,22.257-49.613,49.615s22.258,49.615,49.613,49.615
				c27.357,0,49.615-22.257,49.615-49.615S153.029,261.666,125.672,261.666z M125.672,337.329
				c-14.361,0-26.046-11.685-26.046-26.048c0-14.362,11.685-26.048,26.046-26.048c14.363,0,26.048,11.686,26.048,26.048
				C151.719,325.645,140.035,337.329,125.672,337.329z"/>
			<path d="M370.195,260.987c-27.357,0-49.615,22.257-49.615,49.615c0,27.357,22.258,49.615,49.615,49.615
				c27.36,0,49.616-22.258,49.616-49.615C419.812,283.243,397.556,260.987,370.195,260.987z M370.195,336.649
				c-14.361,0-26.048-11.686-26.048-26.049c0-14.362,11.687-26.047,26.048-26.047c14.364,0,26.048,11.685,26.048,26.047
				C396.243,324.966,384.56,336.649,370.195,336.649z"/>
		</g>
	</g>
</g>
<g>
</g>
<g>
</g>
<g>
</g>
<g>
</g>
<g>
</g>
<g>
</g>
<g>
</g>
<g>
</g>
<g>
</g>
<g>
</g>
<g>
</g>
<g>
</g>
<g>
</g>
<g>
</g>
<g>
</g>
</svg>
