<?xml version="1.0" encoding="iso-8859-1"?>
<!-- Generator: Adobe Illustrator 19.0.0, SVG Export Plug-In . SVG Version: 6.00 Build 0)  -->
<svg version="1.1" id="Layer_1" xmlns="http://www.w3.org/2000/svg" xmlns:xlink="http://www.w3.org/1999/xlink" x="0px" y="0px"
	 viewBox="0 0 512 512" style="enable-background:new 0 0 512 512;" xml:space="preserve">
<g>
	<g>
		<path d="M476.69,229.517h-52.966v-17.658c14.607-0.028,26.483-11.895,26.483-26.48c0-6.786-2.593-12.964-6.813-17.655
			c4.22-4.691,6.813-10.869,6.813-17.655s-2.593-12.964-6.813-17.655c4.22-4.691,6.813-10.869,6.813-17.655
			c0-6.786-2.593-12.964-6.813-17.655c4.22-4.691,6.813-10.869,6.813-17.655c0-14.602-11.903-26.483-26.534-26.483h-8.776V39.724
			c0-17.037-13.899-30.897-30.983-30.897h-8.655c-17.084,0-30.983,13.86-30.983,30.897v13.241H335.5
			c-14.631,0-26.534,11.88-26.534,26.483c0,6.786,2.593,12.964,6.813,17.655c-4.22,4.691-6.813,10.869-6.813,17.655
			c0,6.786,2.593,12.964,6.813,17.655c-4.22,4.691-6.813,10.869-6.813,17.655s2.593,12.964,6.813,17.655
			c-4.22,4.691-6.813,10.869-6.813,17.655c0,14.585,11.876,26.452,26.483,26.48v17.658h-88.276v-70.621
			c0-4.875-3.953-8.828-8.828-8.828h-44.138V79.532c0-0.022-0.002-0.044-0.002-0.067c0-0.016-0.001-0.032-0.001-0.048
			c-0.062-29.2-23.777-52.935-52.922-52.935h-88.36c-29.143,0-52.858,23.736-52.92,52.935c0,0.016-0.001,0.032-0.001,0.048
			C0.002,79.488,0,79.51,0,79.532v370.59c0,29.252,23.741,53.05,52.922,53.05h88.36c29.183,0,52.924-23.797,52.924-53.05v-52.881
			h44.138c4.875,0,8.828-3.953,8.828-8.828v-70.621H476.69c19.47,0,35.31-15.847,35.31-35.325v-17.625
			C512,245.364,496.16,229.517,476.69,229.517z M176.552,128.757l-42.638,42.638c-3.448,3.448-3.448,9.037,0,12.485
			c1.722,1.723,3.983,2.585,6.241,2.585s4.519-0.862,6.241-2.585l30.155-30.155v5.171v22.827l-42.638,42.638
			c-3.448,3.448-3.448,9.037,0,12.485c1.722,1.723,3.983,2.585,6.241,2.585s4.519-0.862,6.241-2.585l30.155-30.155v27.998
			l-42.638,42.638c-3.448,3.448-3.448,9.037,0,12.485c1.722,1.723,3.983,2.585,6.241,2.585s4.52-0.862,6.241-2.585l30.155-30.155
			v27.998l-42.638,42.638c-3.448,3.448-3.448,9.037,0,12.484c1.722,1.724,3.983,2.586,6.241,2.586s4.52-0.862,6.241-2.586
			l30.155-30.154v27.998l-42.638,42.639c-3.448,3.446-3.448,9.037,0,12.483c1.722,1.724,3.983,2.586,6.241,2.586
			s4.52-0.862,6.241-2.586l30.155-30.155v22.828v5.172l-42.638,42.638c-3.448,3.446-3.448,9.037,0,12.483
			c1.722,1.724,3.983,2.586,6.241,2.586s4.52-0.862,6.241-2.586l30.155-30.155v31.571c0,19.517-15.821,35.394-35.269,35.394h-88.36
			c-19.446,0-35.267-15.877-35.267-35.394v-31.571l30.155,30.155c1.722,1.724,3.983,2.586,6.241,2.586s4.519-0.862,6.241-2.586
			c3.448-3.446,3.448-9.037,0-12.483l-42.638-42.638v-28l30.155,30.155c1.722,1.724,3.983,2.586,6.241,2.586
			s4.519-0.862,6.241-2.586c3.448-3.446,3.448-9.037,0-12.483L17.655,340.62v-27.998l30.155,30.155
			c1.722,1.724,3.983,2.586,6.241,2.586s4.519-0.862,6.241-2.586c3.448-3.447,3.448-9.036,0-12.484l-42.638-42.638v-27.998
			l30.155,30.155c1.722,1.723,3.983,2.585,6.241,2.585s4.519-0.862,6.241-2.585c3.448-3.448,3.448-9.037,0-12.485l-42.638-42.638
			v-27.998l30.155,30.155c1.722,1.723,3.983,2.585,6.241,2.585s4.519-0.862,6.241-2.585c3.448-3.448,3.448-9.037,0-12.485
			l-42.638-42.638v-27.998L47.81,183.88c1.722,1.723,3.983,2.585,6.241,2.585s4.519-0.862,6.241-2.585
			c3.448-3.448,3.448-9.037,0-12.485l-42.638-42.638V100.76l30.155,30.155c1.722,1.723,3.983,2.585,6.241,2.585
			s4.519-0.862,6.241-2.585c3.448-3.448,3.448-9.037,0-12.485L17.835,75.972c1.785-17.85,16.838-31.834,35.087-31.834h88.36
			c18.251,0,33.305,13.983,35.089,31.834l-42.458,42.458c-3.448,3.448-3.448,9.037,0,12.485c1.722,1.723,3.983,2.585,6.241,2.585
			s4.519-0.862,6.241-2.585l30.155-30.155V128.757z M229.517,238.345v70.621v70.621h-35.31V167.724h35.31V238.345z M361.931,39.724
			c0-7.302,5.978-13.241,13.328-13.241h8.655c7.349,0,13.327,5.94,13.327,13.241v13.241h-35.31V39.724z M335.5,70.621h17.604h52.966
			h17.604c4.978,0,8.879,3.877,8.879,8.828c0,4.867-3.983,8.828-8.879,8.828H335.5c-4.979,0-8.879-3.877-8.879-8.828
			C326.621,74.581,330.603,70.621,335.5,70.621z M335.5,105.931h88.172c4.979,0,8.879,3.877,8.879,8.828
			c0,4.868-3.983,8.828-8.879,8.828H335.5c-4.979,0-8.879-3.877-8.879-8.828C326.621,109.891,330.603,105.931,335.5,105.931z
			 M335.5,141.241h88.172c4.979,0,8.879,3.877,8.879,8.828c0,4.868-3.983,8.828-8.879,8.828H335.5c-4.979,0-8.879-3.877-8.879-8.828
			C326.621,145.201,330.603,141.241,335.5,141.241z M326.621,185.379c0-4.868,3.983-8.828,8.879-8.828h88.172
			c4.979,0,8.879,3.877,8.879,8.828c0,4.867-3.983,8.828-8.879,8.828h-8.776h-70.621H335.5
			C330.522,194.207,326.621,190.33,326.621,185.379z M406.069,211.862v17.655h-52.966v-17.655H406.069z M494.345,282.468
			c0,9.743-7.92,17.67-17.655,17.67H247.172v-52.966h97.103h70.621h61.793c9.735,0,17.655,7.927,17.655,17.67V282.468z"/>
	</g>
</g>
<g>
</g>
<g>
</g>
<g>
</g>
<g>
</g>
<g>
</g>
<g>
</g>
<g>
</g>
<g>
</g>
<g>
</g>
<g>
</g>
<g>
</g>
<g>
</g>
<g>
</g>
<g>
</g>
<g>
</g>
</svg>
