<?xml version="1.0" encoding="iso-8859-1"?>
<!-- Generator: Adobe Illustrator 19.0.0, SVG Export Plug-In . SVG Version: 6.00 Build 0)  -->
<svg version="1.1" id="Capa_1" xmlns="http://www.w3.org/2000/svg" xmlns:xlink="http://www.w3.org/1999/xlink" x="0px" y="0px"
	 viewBox="0 0 512 512" style="enable-background:new 0 0 512 512;" xml:space="preserve">
<g>
	<g>
		<path d="M248.327,242.768C244.373,245.581,242,250.151,242,255c0,8.276,6.724,15,15,15c4.849,0,9.419-2.373,12.231-6.328
			l51.39-72.294L248.327,242.768z"/>
	</g>
</g>
<g>
	<g>
		<path d="M287,392h-62c-8.276,0-15,6.724-15,15s6.724,15,15,15h62c8.276,0,15-6.724,15-15S295.276,392,287,392z"/>
	</g>
</g>
<g>
	<g>
		<path d="M257,0C116.39,0,0,114.39,0,255s114.39,257,255,257s257-116.39,257-257S397.61,0,257,0z M287,452h-62
			c-24.814,0-45-20.186-45-45c0-24.814,20.186-45,45-45h62c24.814,0,45,20.186,45,45C332,431.814,311.814,452,287,452z
			 M394.827,394.827c-5.859,5.859-15.352,5.859-21.211,0l-21.211-21.211c-5.859-5.859-5.859-15.352,0-21.211s15.352-5.859,21.211,0
			l10.137,10.137c21.542-25.759,33.924-59.184,36.947-92.542H407c-8.291,0-15-6.709-15-15c0-8.291,6.709-15,15-15h14.24
			c-3.01-33.204-15.886-63.567-35.684-88.182l-91.862,129.227C285.257,292.91,271.546,300,257,300c-24.814,0-45-20.186-45-45
			c0-14.546,7.09-28.257,18.955-36.694l129.227-91.862c-23.403-18.823-52.001-31.389-83.296-35.168
			c-1.621-0.196-3.25-0.368-4.886-0.516V105c0,8.291-6.709,15-15,15c-8.291,0-15-6.709-15-15V90.76
			c-34.243,3.105-67.497,16.663-92.507,37.522l10.102,10.102c5.859,5.859,5.859,15.352,0,21.211c-5.86,5.86-15.351,5.86-21.211,0
			l-10.102-10.102c-20.86,25.01-34.417,56.264-37.522,90.507H105c8.291,0,15,6.709,15,15s-6.709,15-15,15H91.296
			c3.016,33.408,15.385,66.85,36.892,92.601l10.195-10.195c5.859-5.859,15.352-5.859,21.211,0s5.859,15.352,0,21.211l-21.27,21.27
			c-5.86,5.86-15.351,5.86-21.211,0C80.288,358.06,60,307.09,60,255c0-107.238,89.272-195,197-195c107.336,0,195,87.678,195,195
			C452,307.017,431.697,357.957,394.827,394.827z"/>
	</g>
</g>
<g>
</g>
<g>
</g>
<g>
</g>
<g>
</g>
<g>
</g>
<g>
</g>
<g>
</g>
<g>
</g>
<g>
</g>
<g>
</g>
<g>
</g>
<g>
</g>
<g>
</g>
<g>
</g>
<g>
</g>
</svg>
