<svg xmlns="http://www.w3.org/2000/svg" style="display: none;"><symbol id="car-black-side-silhouette" viewBox="0 0 332.062 332.063"><title>car-black-side-silhouette</title><path d="M327.061,159.368c-0.466-5.621-0.989-11.982-2.01-17.471c-0.709-3.839-2.268-8.951-7.539-8.951 c-0.528,0-1.057,0.052-1.579,0.106c-0.326,0.031-0.652,0.075-1.186,0.085c-0.011,0-0.182-0.166-0.399-0.797 c-1.548-4.433-8.041-9.947-16.367-16.691c-2.051-1.655-4.506-3.648-5.552-4.676c0.384-2.656,0.327-5.918-1.522-8.166 c-0.859-1.049-2.475-2.302-5.261-2.302c-0.409,0-0.844,0.025-1.812,0.111c-2.01,0-6.038-0.826-11.615-1.979 c-14.38-2.951-41.146-8.45-81.281-9.315c-58.438-1.157-104.359,41.014-106.252,42.79l-1.354,1.258 c-2.4,1.16-9.979,3.933-33.145,8.487c-32.858,6.47-39.126,16.938-40.31,20.986c-2.623,1.958-6.871,6.628-7.544,12.122 c-0.541,4.381-1.766,6.173-1.766,6.168L0,181.864v30.924l0.064,0.564c1.781,8.212,10.292,12.557,24.612,12.557 c4.567,0,7.993-0.466,7.86-0.466c0.199-0.011,1.965-0.041,5.025-0.104c-0.313-0.865-0.598-1.74-0.844-2.636 c-0.238-0.864-0.456-1.734-0.624-2.625c-0.404-2.098-0.631-4.257-0.631-6.473c0-19.004,15.461-34.466,34.465-34.466 s34.466,15.462,34.466,34.466c0,1.719-0.168,3.386-0.409,5.038c-0.132,0.896-0.285,1.786-0.487,2.656 c-0.207,0.901-0.424,1.792-0.699,2.667c43.038-0.922,97.802-2.139,140.216-3.205c-0.187-0.87-0.306-1.751-0.425-2.642 c-0.119-0.88-0.187-1.76-0.233-2.65c-0.031-0.622-0.093-1.232-0.093-1.864c0-19.004,15.462-34.466,34.465-34.466 c18.735,0,34,15.037,34.425,33.679c0,0.259,0.041,0.522,0.041,0.787c0,0.668-0.062,1.32-0.104,1.983 c-0.052,0.942-0.145,1.879-0.269,2.801c8.098-1.336,14.188-5.603,17.714-12.505c6.032-11.801,2.957-27.78,0.792-31.173 C328.158,172.875,327.578,165.698,327.061,159.368z"/><path d="M43.178,225.215c4.492,10.325,14.768,17.548,26.745,17.548c12.407,0,22.975-7.762,27.19-18.677 c0.334-0.87,0.632-1.761,0.886-2.672c0.243-0.87,0.445-1.761,0.611-2.662c0.295-1.672,0.481-3.392,0.481-5.151 c0-16.109-13.054-29.164-29.163-29.164c-16.109,0-29.163,13.055-29.163,29.164c0,2.185,0.259,4.312,0.717,6.363 c0.194,0.891,0.427,1.766,0.709,2.62C42.479,223.486,42.808,224.355,43.178,225.215z"/><path d="M248.436,220.617c3.148,12.707,14.603,22.146,28.283,22.146c14.302,0,26.176-10.309,28.661-23.892 c0.16-0.88,0.284-1.766,0.372-2.672c0.078-0.859,0.13-1.719,0.13-2.599c0-0.021,0-0.042,0-0.068 c-0.031-16.072-13.08-29.096-29.163-29.096c-16.104,0-29.163,13.055-29.163,29.164c0,0.585,0.057,1.154,0.088,1.734 c0.052,0.896,0.14,1.775,0.274,2.646C248.053,218.872,248.229,219.752,248.436,220.617z"/></symbol><symbol id="car-3" viewBox="0 0 512 512"><title>car-3</title><g> <g> <path d="M110.933,287.834c-23.526,0-42.667,19.14-42.667,42.667c0,23.526,19.14,42.667,42.667,42.667 c23.526,0,42.667-19.14,42.667-42.667C153.6,306.975,134.46,287.834,110.933,287.834z M110.933,356.101 c-14.114,0-25.6-11.486-25.6-25.6s11.486-25.6,25.6-25.6s25.6,11.486,25.6,25.6S125.047,356.101,110.933,356.101z"/> </g> </g><g> <g> <path d="M503.467,287.834v-51.2c0-3.669-2.347-6.938-5.837-8.098l-48.145-16.051c-18.133-30.711-43.059-59.938-98.142-69.589 c-0.102-0.017-0.205-0.034-0.307-0.051c-101.726-14.063-178.099,8.883-227.132,68.224c-36.497,0.529-73.754,8.158-95.667,22.187 c-11.349,7.27-18.082,19.925-18.714,33.391l-0.99,21.188c-4.71,0-8.533,3.823-8.533,8.533v34.133c0,4.71,3.823,8.533,8.533,8.533 h34.133c4.736,0,8.525-3.891,8.533-8.627c0-0.043,0.009-0.085,0.009-0.137c0.128-32.879,26.812-59.503,59.725-59.503 c32.99,0,59.733,26.743,59.733,59.733c-0.614,5.18,3.473,8.533,8.533,8.533h153.6c4.736,0,8.525-3.891,8.533-8.627 c0-0.043,0.008-0.085,0.008-0.137c0.128-32.879,26.812-59.503,59.725-59.503c32.99,0,59.733,26.743,59.733,59.733 c-0.614,5.18,3.473,8.533,8.533,8.533h34.133c4.71,0,8.533-3.823,8.533-8.533v-34.133 C512,291.657,508.177,287.834,503.467,287.834z M273.067,206.768c0,2.355-1.911,4.267-4.267,4.267H157.517 c-3.942,0-5.734-4.847-2.825-7.501c29.611-26.991,67.268-42.428,113.673-46.532c2.5-0.222,4.702,1.792,4.702,4.301V206.768z M375.586,206.81c-0.026,2.338-1.929,4.224-4.267,4.224H294.4c-2.355,0-4.267-1.911-4.267-4.267v-46.592 c0-2.364,1.886-4.309,4.241-4.309c17.015-0.017,35.021,1.22,54.161,3.866c9.114,1.604,17.237,3.806,24.627,6.511 c1.698,0.623,2.782,2.27,2.765,4.079L375.586,206.81z M420.122,211.034h-23.202c-2.372,0-4.292-1.937-4.267-4.309l0.222-23.125 c0.034-3.524,4.053-5.436,6.895-3.354c9.225,6.741,16.896,14.771,23.731,23.885C425.634,206.972,423.671,211.034,420.122,211.034z "/> </g> </g><g> <g> <path d="M401.067,287.834c-23.526,0-42.667,19.14-42.667,42.667c0,23.526,19.14,42.667,42.667,42.667 c23.526,0,42.667-19.14,42.667-42.667C443.733,306.975,424.593,287.834,401.067,287.834z M401.067,356.101 c-14.114,0-25.6-11.486-25.6-25.6s11.486-25.6,25.6-25.6c14.114,0,25.6,11.486,25.6,25.6S415.181,356.101,401.067,356.101z"/> </g> </g></symbol><symbol id="oil-1" viewBox="0 0 512.001 512.001"><title>oil-1</title><g> <g> <path d="M446.284,175.366L297.276,212.72l-20.961-20.961h-86.449v-21.726h32.619v-29.996h-95.235v29.996h32.619v21.726H0v94.429 h56.425v70.605h234.806l112.817-139.915l33.043-8.283l21.905,21.904l21.21-21.21L446.284,175.366z M56.425,256.192H29.996v-34.436 h26.429V256.192z"/> </g> </g><g> <g> <path d="M503.842,304.725l-34.241-47.084l-34.242,47.084c-12.328,16.953-10.518,40.016,4.305,54.837 c7.997,7.997,18.629,12.401,29.937,12.401s21.94-4.404,29.936-12.401C514.361,344.742,516.171,321.678,503.842,304.725z"/> </g> </g></symbol><symbol id="add" viewBox="0 0 42 42"><title>add</title><polygon points="42,20 22,20 22,0 20,0 20,20 0,20 0,22 20,22 20,42 22,42 22,22 42,22 "/></symbol><symbol id="smartphone-call" viewBox="0 0 35 35"><title>smartphone-call</title><path d="M25.302,0H9.698c-1.3,0-2.364,1.063-2.364,2.364v30.271C7.334,33.936,8.398,35,9.698,35h15.604 c1.3,0,2.364-1.062,2.364-2.364V2.364C27.666,1.063,26.602,0,25.302,0z M15.004,1.704h4.992c0.158,0,0.286,0.128,0.286,0.287 c0,0.158-0.128,0.286-0.286,0.286h-4.992c-0.158,0-0.286-0.128-0.286-0.286C14.718,1.832,14.846,1.704,15.004,1.704z M17.5,33.818 c-0.653,0-1.182-0.529-1.182-1.183s0.529-1.182,1.182-1.182s1.182,0.528,1.182,1.182S18.153,33.818,17.5,33.818z M26.021,30.625 H8.979V3.749h17.042V30.625z"/></symbol><symbol id="sedan-car-front" viewBox="0 0 48.997 48.998"><title>sedan-car-front</title><path d="M45.961,18.702c-0.033-0.038-0.061-0.075-0.1-0.112l-1.717-1.657c1.424-0.323,2.957-1.516,2.957-2.74 c0-1.426-1.979-1.932-3.668-1.932c-1.766,0-1.971,1.21-1.992,2.065l-4.43-4.271c-0.9-0.891-2.607-1.592-3.883-1.592H24.5h-0.002 h-8.63c-1.275,0-2.981,0.701-3.882,1.592l-4.429,4.271c-0.023-0.855-0.228-2.065-1.992-2.065c-1.691,0-3.669,0.506-3.669,1.932 c0,1.224,1.534,2.417,2.958,2.74l-1.717,1.657c-0.039,0.037-0.066,0.074-0.1,0.112C1.2,20.272,0,23.184,0,25.297v6.279 c0,1.524,0.601,2.907,1.572,3.938v2.435c0,1.424,1.192,2.585,2.658,2.585h3.214c1.466,0,2.657-1.159,2.657-2.585v-0.623h14.397 H24.5h14.396v0.623c0,1.426,1.19,2.585,2.658,2.585h3.213c1.467,0,2.657-1.161,2.657-2.585v-2.435 c0.972-1.031,1.572-2.414,1.572-3.938v-6.279C48.998,23.184,47.798,20.272,45.961,18.702z M13.613,11.953 c0.623-0.519,1.712-0.913,2.255-0.913h8.63H24.5h8.63c0.543,0,1.632,0.394,2.255,0.913l5.809,5.63H24.5h-0.002H7.805L13.613,11.953 z M1.993,24.347c0-1.546,1.21-2.801,2.704-2.801c1.493,0,6.372,2.864,6.372,4.41s-4.879,1.188-6.372,1.188 C3.203,27.144,1.993,25.894,1.993,24.347z M10.102,34.573H9.587H9.072l-3.055,0.005c-0.848-0.264-1.446-0.572-1.869-0.903 c-0.214-0.167-0.378-0.341-0.506-0.514c-0.129-0.175-0.223-0.347-0.284-0.519c-0.38-1.074,0.405-2.061,0.405-2.061h5.214 l3.476,3.99L10.102,34.573L10.102,34.573z M31.996,34.575H24.5h-0.002h-7.496c-1.563,0-2.832-1.269-2.832-2.831h10.328H24.5h10.328 C34.828,33.308,33.559,34.575,31.996,34.575z M32.654,29.812H24.5h-0.002h-8.154c-1.7,0-3.08-2.096-3.08-4.681h11.234H24.5h11.234 C35.734,27.717,34.354,29.812,32.654,29.812z M45.641,32.644c-0.062,0.172-0.156,0.344-0.285,0.518 c-0.127,0.173-0.291,0.347-0.506,0.514c-0.422,0.331-1.021,0.641-1.869,0.903l-3.055-0.005h-0.515h-0.515h-2.353l3.478-3.99h5.213 C45.234,30.583,46.02,31.568,45.641,32.644z M44.301,27.144c-1.492,0-6.371,0.356-6.371-1.188s4.879-4.41,6.371-4.41 c1.494,0,2.704,1.255,2.704,2.801C47.005,25.892,45.795,27.144,44.301,27.144z"/></symbol><symbol id="pick-up" viewBox="0 0 99.288 99.288"><title>pick-up</title><path d="M17.794,50.41c-4.363,0-7.902,3.535-7.902,7.899c0,0.34,0.027,0.67,0.07,0.994c0.49,3.896,3.806,6.91,7.832,6.91 c4.139,0,7.527-3.179,7.871-7.229c0.018-0.225,0.034-0.446,0.034-0.676C25.699,53.945,22.161,50.41,17.794,50.41z M13.836,55.333 l1.613,1.612c-0.126,0.216-0.225,0.447-0.287,0.695h-2.271C13.008,56.779,13.337,55.995,13.836,55.333z M12.882,59.008h2.288 c0.065,0.244,0.161,0.476,0.287,0.688l-1.616,1.613C13.343,60.652,13.003,59.866,12.882,59.008z M17.11,63.221 c-0.854-0.117-1.635-0.453-2.292-0.949l1.607-1.607c0.21,0.123,0.442,0.214,0.685,0.276V63.221z M17.11,55.682 c-0.248,0.064-0.48,0.164-0.698,0.291l-1.609-1.609c0.66-0.503,1.447-0.835,2.308-0.955L17.11,55.682L17.11,55.682z M18.479,53.409c0.863,0.12,1.648,0.452,2.31,0.956l-1.609,1.608c-0.217-0.127-0.45-0.227-0.7-0.291L18.479,53.409L18.479,53.409z M18.479,63.221v-2.28c0.244-0.063,0.475-0.154,0.687-0.279l1.606,1.61C20.115,62.766,19.336,63.102,18.479,63.221z M21.753,61.313l-1.62-1.619c0.125-0.213,0.229-0.439,0.294-0.686h2.271C22.578,59.866,22.254,60.657,21.753,61.313z M20.428,57.641c-0.062-0.248-0.16-0.479-0.285-0.695l1.611-1.612c0.5,0.661,0.829,1.445,0.947,2.308H20.428L20.428,57.641z"/><path d="M74.758,50.41c-4.363,0-7.901,3.535-7.901,7.899c0,0.34,0.026,0.67,0.067,0.994c0.49,3.896,3.808,6.91,7.834,6.91 c4.139,0,7.526-3.179,7.87-7.229c0.02-0.225,0.034-0.446,0.034-0.676C82.662,53.945,79.124,50.41,74.758,50.41z M70.799,55.333 l1.613,1.612c-0.126,0.216-0.224,0.447-0.287,0.695h-2.271C69.971,56.779,70.301,55.995,70.799,55.333z M69.846,59.008h2.288 c0.064,0.244,0.16,0.476,0.286,0.688l-1.616,1.613C70.308,60.652,69.967,59.866,69.846,59.008z M74.074,63.221 c-0.855-0.117-1.635-0.453-2.293-0.949l1.606-1.607c0.211,0.123,0.443,0.214,0.687,0.276V63.221z M74.074,55.682 c-0.25,0.064-0.482,0.164-0.699,0.291l-1.608-1.609c0.66-0.503,1.446-0.835,2.309-0.955L74.074,55.682L74.074,55.682z M75.441,53.409c0.862,0.12,1.647,0.452,2.31,0.956l-1.608,1.608c-0.218-0.127-0.45-0.227-0.7-0.291L75.441,53.409L75.441,53.409z M75.441,63.221v-2.28c0.244-0.063,0.475-0.154,0.687-0.279l1.607,1.61C77.078,62.766,76.299,63.102,75.441,63.221z M78.716,61.313l-1.62-1.619c0.125-0.213,0.229-0.439,0.295-0.686h2.271C79.54,59.866,79.217,60.657,78.716,61.313z M77.392,57.641c-0.062-0.248-0.16-0.479-0.285-0.695l1.611-1.612c0.499,0.661,0.828,1.445,0.945,2.308H77.392L77.392,57.641z"/><path d="M97.999,52.649H96.44l-0.4-9.369c-0.024-0.578-0.504-1.032-1.082-1.027L73.422,42.45v-7.78c0-0.724-0.587-1.31-1.311-1.31 h-1.027c-0.723,0-1.31,0.586-1.31,1.31v7.814l-2.86,0.026l-0.574-6.886c-0.12-1.44-1.324-2.549-2.77-2.549H37.414 c-0.913,0-1.79,0.353-2.448,0.984l-8.782,8.428L9.373,44.261c-2.33,0.245-4.463,1.421-5.915,3.261l-1.731,2.194 c-1.316,0.813-1.975,2.373-1.64,3.885l0.521,2.356c0.225,1.021,1.023,1.815,2.044,2.036l5.737,1.248 c-0.033-0.322-0.064-0.639-0.064-0.932c0-5.221,4.248-9.468,9.47-9.468c5.224,0,9.473,4.248,9.473,9.468 c0,0.272-0.018,0.539-0.039,0.806c-0.006,0.069-0.02,0.136-0.027,0.204h38.157c-0.04-0.354-0.07-0.692-0.07-1.01 c0-5.221,4.248-9.468,9.471-9.468c5.225,0,9.473,4.248,9.473,9.468c0,0.272-0.019,0.539-0.039,0.806 c-0.006,0.069-0.021,0.136-0.027,0.204h4.808l4.356-2.401h4.672c0.711,0,1.287-0.575,1.287-1.286v-1.695 C99.286,53.223,98.71,52.649,97.999,52.649z M33.071,43.002c0,0,0.559-1.347,0-2.89l3.467-4.299 c0.198-0.245,0.496-0.388,0.81-0.388h10.375v7.576L33.071,43.002L33.071,43.002z M51.563,43.002v-7.576h9.415 c0.558,0,1.017,0.44,1.04,0.997l0.273,6.579H51.563z"/></symbol><symbol id="car-suv" viewBox="0 0 99.488 99.488"><title>car-suv</title><path d="M98.587,52.231l-0.68-0.106c0.244-9.324-1.22-11.202-2.858-16.912h0.901c0.428,0,0.773-0.347,0.773-0.774V33.55 c0-0.427-0.347-0.773-0.773-0.773H41.123c-0.805,0-1.594,0.216-2.286,0.625L22.22,43.218c0,0-16.635,0.671-19.213,3.222 c-1.303,1.289-2.481,3.832-2.911,6.767c-0.43,2.934,0.693,6.062,1.331,6.737c0.639,0.675,1.663,0.998,1.663,0.998l0.406,0.771 c0.262,0.496,0.78,0.801,1.341,0.787l2.674-0.064v-7.383c0-2.863,2.324-5.188,5.189-5.188h7.099c2.511,0,4.548,2.035,4.548,4.549 v7.612l0.121-0.003l43.416-0.667l0.625,0.063v-6.367c0-2.863,2.324-5.188,5.188-5.188h7.101c2.512,0,4.547,2.035,4.547,4.549 v8.323l5.991-1.272c0.315-0.067,0.585-0.276,0.729-0.566l0.438-0.872l6.059-0.793c0.53-0.069,0.927-0.522,0.927-1.058v-4.893 C99.487,52.76,99.105,52.313,98.587,52.231z M46.435,43.697c-0.133,0.142-0.319,0.223-0.515,0.223H32.695 c0,0,0.812-0.417,1.237-1.012c0.426-0.593,0.19-1.998-0.288-2.472c-0.439-0.434-1.322-0.729-1.322-0.729l6.651-4.095 c0.426-0.263,0.916-0.401,1.417-0.401h5.628c0.188,0,0.368,0.075,0.5,0.209c0.132,0.134,0.205,0.314,0.202,0.503l-0.097,7.244 C46.636,43.363,46.569,43.554,46.435,43.697z M63.045,43.109c-0.444,0.539-1.103,0.857-1.803,0.873l-10.585,0.23 c-0.189,0.004-0.373-0.067-0.508-0.199c-0.136-0.133-0.212-0.315-0.212-0.504v-7.595c0-0.388,0.314-0.702,0.702-0.702h11.748 c0.364,0,0.667,0.277,0.699,0.64l0.474,5.323C63.677,41.864,63.489,42.571,63.045,43.109z M94.358,43.115 c-0.062,0.105-0.175,0.168-0.297,0.169l-21.502,0.162c-0.931,0.007-1.799-0.468-2.298-1.255l-2.254-6.031 c-0.081-0.216-0.051-0.457,0.08-0.646c0.132-0.189,0.348-0.302,0.577-0.302h22.746c0.306,0,0.574,0.196,0.669,0.486l2.288,7.074 C94.425,42.881,94.421,43.011,94.358,43.115z"/><path d="M15.926,51.364c-4.235,0-7.673,3.433-7.673,7.672c0,0.329,0.027,0.647,0.067,0.966c0.477,3.782,3.696,6.709,7.605,6.709 c4.022,0,7.31-3.086,7.644-7.02c0.019-0.219,0.033-0.434,0.033-0.655C23.603,54.797,20.167,51.364,15.926,51.364z M12.083,56.146 l1.568,1.563c-0.123,0.213-0.221,0.438-0.279,0.678h-2.207C11.279,57.549,11.599,56.787,12.083,56.146z M11.157,59.715h2.224 c0.063,0.234,0.154,0.459,0.279,0.666l-1.571,1.567C11.605,61.311,11.275,60.547,11.157,59.715z M15.262,63.803 c-0.829-0.111-1.586-0.438-2.225-0.92l1.561-1.562c0.203,0.12,0.43,0.207,0.664,0.27V63.803z M15.262,56.485 c-0.239,0.062-0.466,0.159-0.678,0.282l-1.561-1.563c0.641-0.489,1.403-0.812,2.238-0.929L15.262,56.485L15.262,56.485z M16.59,54.276c0.84,0.116,1.602,0.438,2.244,0.931l-1.563,1.561c-0.209-0.122-0.438-0.221-0.682-0.281L16.59,54.276L16.59,54.276 z M16.59,63.803V61.59c0.237-0.062,0.462-0.149,0.669-0.271l1.559,1.564C18.18,63.364,17.423,63.69,16.59,63.803z M19.771,61.952 l-1.572-1.573c0.12-0.205,0.222-0.426,0.284-0.664h2.204C20.571,60.547,20.258,61.316,19.771,61.952z M18.483,58.387 c-0.058-0.239-0.154-0.465-0.275-0.678l1.564-1.563c0.486,0.644,0.806,1.403,0.92,2.241H18.483z"/><path d="M76.924,51.364c-4.236,0-7.675,3.433-7.675,7.672c0,0.329,0.026,0.647,0.068,0.966c0.476,3.782,3.696,6.709,7.605,6.709 c4.021,0,7.309-3.086,7.643-7.02c0.02-0.219,0.033-0.434,0.033-0.655C84.6,54.797,81.166,51.364,76.924,51.364z M73.081,56.146 l1.566,1.563c-0.123,0.213-0.22,0.438-0.278,0.678h-2.206C72.276,57.549,72.596,56.787,73.081,56.146z M72.154,59.715h2.224 c0.063,0.234,0.153,0.459,0.278,0.666l-1.569,1.567C72.602,61.311,72.272,60.547,72.154,59.715z M76.259,63.803 c-0.83-0.111-1.587-0.438-2.226-0.92l1.562-1.562c0.203,0.12,0.431,0.207,0.664,0.27V63.803z M76.259,56.485 c-0.238,0.062-0.466,0.159-0.679,0.282l-1.561-1.563c0.64-0.489,1.402-0.812,2.238-0.929L76.259,56.485L76.259,56.485z M77.589,54.276c0.839,0.116,1.601,0.438,2.243,0.931l-1.563,1.561c-0.209-0.122-0.438-0.221-0.681-0.281L77.589,54.276 L77.589,54.276z M77.589,63.803V61.59c0.235-0.062,0.461-0.149,0.668-0.271l1.559,1.564C79.177,63.364,78.421,63.69,77.589,63.803 z M80.769,61.952l-1.573-1.573c0.12-0.205,0.223-0.426,0.285-0.664h2.204C81.569,60.547,81.255,61.316,80.769,61.952z M79.481,58.387c-0.059-0.239-0.155-0.465-0.274-0.678l1.563-1.563c0.484,0.644,0.806,1.403,0.92,2.241H79.481z"/></symbol><symbol id="coupe-car" viewBox="0 0 99.382 99.382"><title>coupe-car</title><path d="M17.001,49.693c-4.12,0-7.46,3.338-7.46,7.459c0,0.319,0.026,0.631,0.066,0.938c0.462,3.677,3.593,6.521,7.394,6.521 c3.906,0,7.105-3.002,7.429-6.823c0.019-0.211,0.032-0.422,0.032-0.638C24.463,53.031,21.123,49.693,17.001,49.693z M13.264,54.342l1.522,1.521c-0.119,0.203-0.211,0.423-0.271,0.656H12.37C12.483,55.706,12.794,54.967,13.264,54.342z M12.364,57.812h2.16c0.062,0.229,0.15,0.447,0.27,0.646l-1.524,1.524C12.798,59.361,12.479,58.62,12.364,57.812z M16.356,61.787 c-0.809-0.111-1.543-0.429-2.164-0.896l1.517-1.518c0.199,0.116,0.418,0.201,0.647,0.262V61.787z M16.356,54.672 c-0.235,0.062-0.455,0.153-0.66,0.274l-1.521-1.521c0.625-0.475,1.366-0.788,2.181-0.901V54.672z M17.647,52.524 c0.813,0.113,1.555,0.428,2.18,0.902l-1.52,1.52c-0.205-0.121-0.426-0.214-0.66-0.274V52.524z M17.647,61.786v-2.151 c0.229-0.061,0.447-0.146,0.646-0.264l1.519,1.52C19.191,61.357,18.456,61.675,17.647,61.786z M20.738,59.988l-1.53-1.531 c0.118-0.199,0.217-0.414,0.278-0.646h2.144C21.516,58.62,21.21,59.367,20.738,59.988z M19.487,56.52 c-0.061-0.233-0.152-0.453-0.271-0.656l1.522-1.521c0.471,0.625,0.782,1.364,0.894,2.179L19.487,56.52L19.487,56.52z"/><path d="M78.611,49.758c-4.103,0-7.428,3.324-7.428,7.428c0,0.317,0.025,0.627,0.064,0.934c0.46,3.66,3.578,6.494,7.363,6.494 c3.889,0,7.074-2.989,7.396-6.794c0.019-0.21,0.032-0.42,0.032-0.634C86.04,53.082,82.715,49.758,78.611,49.758z M74.891,54.387 l1.516,1.516c-0.118,0.202-0.21,0.421-0.27,0.653h-2.136C74.112,55.744,74.422,55.009,74.891,54.387z M73.994,57.842h2.15 c0.062,0.229,0.15,0.444,0.269,0.644l-1.519,1.52C74.427,59.386,74.108,58.646,73.994,57.842z M77.969,61.801 c-0.805-0.112-1.535-0.429-2.154-0.896l1.51-1.51c0.198,0.115,0.417,0.201,0.645,0.26V61.801z M77.969,54.715 c-0.233,0.061-0.453,0.152-0.656,0.272l-1.514-1.514c0.622-0.471,1.36-0.784,2.17-0.897V54.715z M79.255,52.576 c0.812,0.113,1.549,0.428,2.17,0.898l-1.513,1.513c-0.204-0.12-0.423-0.213-0.657-0.272V52.576z M79.255,61.8v-2.145 c0.229-0.059,0.446-0.146,0.645-0.262l1.511,1.512C80.792,61.371,80.061,61.687,79.255,61.8z M82.332,60.009l-1.523-1.524 c0.117-0.199,0.216-0.412,0.276-0.643h2.134C83.106,58.646,82.802,59.389,82.332,60.009z M81.087,56.555 c-0.06-0.232-0.15-0.451-0.27-0.653l1.516-1.516c0.469,0.622,0.778,1.357,0.889,2.169H81.087z"/><path d="M99.352,52.001c-0.026-0.983-0.331-1.941-0.882-2.759l-0.402-0.6l-1.757-4.635c-0.331-0.875-1.139-1.484-2.07-1.562 c-1.728-0.146-4.663-0.368-7.465-0.471c-9.794-5.201-27.904-10.43-43.262-4.731c-3.151,1.169-12.154,5.744-12.154,5.744 s-14.62-0.37-25.047,3.349c-4.108,1.465-6.699,5.543-6.266,9.884c0.087,0.869,0.215,1.642,0.341,2.266 c0.199,0.987,1.014,1.731,2.015,1.842l6.487,0.711c-0.408-0.852-0.695-1.773-0.818-2.755c-0.052-0.401-0.078-0.772-0.078-1.132 c0-4.967,4.041-9.008,9.008-9.008c4.968,0,9.01,4.042,9.01,9.008c0,0.26-0.017,0.514-0.038,0.768 c-0.095,1.115-0.399,2.172-0.868,3.135h45.045l0.365-0.021c-0.4-0.842-0.683-1.753-0.804-2.72 c-0.052-0.403-0.077-0.773-0.077-1.127c0-4.95,4.026-8.978,8.977-8.978s8.978,4.026,8.978,8.978c0,0.259-0.017,0.511-0.038,0.764 c-0.062,0.734-0.223,1.438-0.453,2.11L88.112,60l6.979-0.923c1.214-0.161,2.285-0.876,2.898-1.936l0.695-1.199 c0.479-0.83,0.721-1.777,0.695-2.735L99.352,52.001z M74.63,43.068H40.469c0,0,0.203-0.809-0.69-1.786 c0,0,8.733-5.633,22.22-4.226c3.711,0.388,8.246,0.651,14.42,3.86L74.63,43.068z"/></symbol><symbol id="cabrio-car" viewBox="0 0 99.084 99.084"><title>cabrio-car</title><path d="M25.263,56.561c0-4.016-3.253-7.267-7.268-7.267c-4.013,0-7.267,3.251-7.267,7.267c0,0.312,0.026,0.614,0.064,0.913 c0.45,3.581,3.501,6.354,7.202,6.354c3.804,0,6.919-2.924,7.237-6.647C25.248,56.975,25.263,56.77,25.263,56.561z M14.355,53.822 l1.483,1.481c-0.116,0.199-0.204,0.412-0.262,0.641h-2.09C13.594,55.152,13.898,54.431,14.355,53.822z M13.48,57.202h2.104 c0.06,0.224,0.146,0.438,0.263,0.629l-1.484,1.487C13.903,58.712,13.589,57.99,13.48,57.202z M17.367,61.076 c-0.786-0.109-1.504-0.418-2.108-0.875l1.477-1.479c0.194,0.114,0.408,0.196,0.632,0.255L17.367,61.076L17.367,61.076z M17.367,54.143c-0.229,0.06-0.444,0.15-0.644,0.269l-1.479-1.479c0.607-0.462,1.33-0.769,2.123-0.879V54.143z M18.623,52.052 c0.794,0.11,1.517,0.417,2.124,0.879l-1.479,1.479c-0.2-0.117-0.414-0.209-0.645-0.269V52.052z M18.623,61.074v-2.098 c0.226-0.059,0.438-0.143,0.632-0.256l1.479,1.479C20.129,60.656,19.411,60.964,18.623,61.074z M21.635,59.323l-1.49-1.492 c0.115-0.195,0.211-0.403,0.271-0.629h2.088C22.393,57.99,22.095,58.717,21.635,59.323z M20.416,55.945 c-0.059-0.229-0.146-0.44-0.263-0.641l1.483-1.482c0.459,0.608,0.763,1.329,0.87,2.122L20.416,55.945L20.416,55.945z"/><path d="M77.118,49.294c-4.013,0-7.266,3.251-7.266,7.267c0,0.312,0.025,0.614,0.062,0.913c0.45,3.581,3.502,6.354,7.202,6.354 c3.806,0,6.92-2.924,7.237-6.647c0.016-0.205,0.031-0.41,0.031-0.619C84.388,52.545,81.134,49.294,77.118,49.294z M73.479,53.822 l1.483,1.481c-0.116,0.199-0.204,0.412-0.264,0.641H72.61C72.718,55.152,73.021,54.431,73.479,53.822z M72.604,57.202h2.104 c0.062,0.224,0.146,0.438,0.264,0.629l-1.485,1.488C73.026,58.712,72.713,57.99,72.604,57.202z M76.49,61.076 c-0.786-0.109-1.503-0.418-2.107-0.875l1.478-1.479c0.194,0.114,0.407,0.196,0.631,0.255L76.49,61.076L76.49,61.076z M76.49,54.143c-0.229,0.06-0.442,0.15-0.643,0.269l-1.479-1.479c0.606-0.462,1.33-0.769,2.122-0.879V54.143z M77.746,52.052 c0.795,0.11,1.518,0.417,2.125,0.879l-1.479,1.479c-0.2-0.117-0.415-0.209-0.646-0.269V52.052z M77.746,61.074v-2.098 c0.227-0.059,0.438-0.143,0.634-0.256l1.479,1.479C79.253,60.656,78.535,60.964,77.746,61.074z M80.76,59.323l-1.491-1.492 c0.115-0.195,0.212-0.403,0.271-0.629h2.089C81.517,57.99,81.219,58.717,80.76,59.323z M79.539,55.945 c-0.058-0.229-0.146-0.44-0.262-0.641l1.482-1.481c0.458,0.608,0.762,1.329,0.869,2.122H79.539z"/><path d="M97.562,47.933c-8.3-7.166-18.199-7.523-18.199-7.523l-5.721-1.796c-0.812-0.255-1.676,0.194-1.936,1.004l-0.454,1.426 l-10.524,0.787l-0.216-2.097c-0.067-0.655-0.628-1.148-1.287-1.13l-0.697,0.019c-0.682,0.019-1.226,0.576-1.226,1.259v2.367 l-15.8,0.719c0.347-1.16-0.412-1.889-0.412-1.889l6.547-3.097c0.4-0.189,0.658-0.588,0.669-1.03 c0.009-0.442-0.232-0.853-0.624-1.058l-0.766-0.404c-0.519-0.273-1.131-0.309-1.678-0.099c-2.412,0.925-9.514,3.716-16.767,7.192 c-10.716,0.752-22.623,2.835-25.487,4.68c-2.865,1.846-3.141,4.128-2.929,6.496c0.309,3.435,2.904,6.225,6.307,6.778l4.693,0.764 l0.148-0.001c-0.749-1.069-1.258-2.325-1.43-3.694c-0.043-0.342-0.072-0.688-0.072-1.043c0-4.571,3.719-8.291,8.292-8.291 c4.573,0,8.294,3.72,8.294,8.291c0,0.235-0.017,0.47-0.034,0.699c-0.123,1.438-0.624,2.768-1.391,3.901l44.468-0.447l0.61-0.022 c-0.536-0.93-0.903-1.971-1.044-3.088c-0.043-0.342-0.072-0.688-0.072-1.043c0-4.571,3.721-8.291,8.292-8.291 c4.574,0,8.294,3.72,8.294,8.291c0,0.235-0.016,0.47-0.033,0.699c-0.088,1.017-0.363,1.978-0.786,2.854l10.229-0.402l0.685-0.754 c1.74-1.915,2.942-4.257,3.481-6.788C99.322,50.606,98.773,48.978,97.562,47.933z"/></symbol><symbol id="car-2" viewBox="0 0 98.54 98.54"><title>car-2</title><path d="M78.823,62.794c0,0.359,0.029,0.71,0.074,1.059c0.521,4.149,4.056,7.361,8.347,7.361c4.407,0,8.019-3.389,8.384-7.7 c0.02-0.238,0.037-0.478,0.037-0.72c0-4.65-3.771-8.421-8.421-8.421C82.593,54.374,78.823,58.144,78.823,62.794z M92.47,62.08 h-2.42c-0.068-0.264-0.172-0.511-0.306-0.741l1.718-1.718C91.994,60.326,92.345,61.163,92.47,62.08z M91.462,65.995l-1.729-1.728 c0.136-0.228,0.245-0.47,0.313-0.73h2.42C92.338,64.45,91.994,65.292,91.462,65.995z M87.974,65.596 c0.259-0.067,0.504-0.166,0.729-0.299l1.712,1.714c-0.701,0.528-1.53,0.886-2.442,1.013L87.974,65.596L87.974,65.596z M87.974,57.571c0.918,0.127,1.755,0.483,2.459,1.019l-1.716,1.716c-0.23-0.138-0.479-0.242-0.744-0.312L87.974,57.571 L87.974,57.571z M83.025,59.621l1.719,1.718c-0.135,0.229-0.238,0.478-0.306,0.741h-2.42 C82.144,61.163,82.495,60.326,83.025,59.621z M86.515,59.994c-0.265,0.069-0.513,0.174-0.744,0.312l-1.716-1.717 c0.704-0.534,1.542-0.89,2.459-1.018L86.515,59.994L86.515,59.994z M84.071,67.012l1.711-1.712 c0.226,0.133,0.474,0.229,0.731,0.296v2.429C85.604,67.898,84.772,67.541,84.071,67.012z M82.01,63.537h2.438 c0.069,0.26,0.172,0.505,0.306,0.731l-1.722,1.721C82.5,65.288,82.138,64.451,82.01,63.537z"/><path d="M9.198,62.794c0,0.359,0.03,0.71,0.074,1.059c0.521,4.149,4.056,7.361,8.347,7.361c4.408,0,8.02-3.389,8.385-7.7 c0.021-0.238,0.037-0.478,0.037-0.72c0-4.65-3.77-8.421-8.421-8.421S9.198,58.144,9.198,62.794z M22.846,62.08h-2.421 c-0.067-0.264-0.171-0.511-0.305-0.741l1.718-1.718C22.369,60.326,22.72,61.163,22.846,62.08z M21.837,65.995l-1.728-1.728 c0.135-0.228,0.245-0.47,0.313-0.73h2.42C22.714,64.45,22.369,65.292,21.837,65.995z M18.348,65.596 c0.259-0.067,0.505-0.166,0.73-0.299l1.712,1.714c-0.701,0.528-1.531,0.886-2.443,1.013L18.348,65.596L18.348,65.596z M18.348,57.571c0.919,0.127,1.755,0.483,2.459,1.019l-1.715,1.716c-0.23-0.138-0.479-0.242-0.745-0.312L18.348,57.571 L18.348,57.571z M13.4,59.621l1.72,1.718c-0.135,0.229-0.238,0.478-0.306,0.741h-2.421C12.519,61.163,12.87,60.326,13.4,59.621z M16.89,59.994c-0.265,0.069-0.514,0.174-0.744,0.312l-1.716-1.717c0.705-0.534,1.542-0.89,2.46-1.018V59.994z M14.447,67.012 l1.711-1.712c0.226,0.133,0.473,0.229,0.731,0.296v2.429C15.979,67.898,15.148,67.541,14.447,67.012z M12.384,63.537h2.438 c0.069,0.26,0.172,0.505,0.305,0.731l-1.722,1.721C12.875,65.288,12.513,64.451,12.384,63.537z"/><path d="M0.608,64.732l6.75-0.105c-0.029-0.172-0.066-0.342-0.089-0.517c-0.061-0.477-0.09-0.905-0.09-1.314 c0-5.757,4.683-10.439,10.439-10.439c5.758,0,10.441,4.684,10.441,10.439c0,0.3-0.019,0.594-0.043,0.891 c-0.018,0.209-0.053,0.413-0.083,0.619l48.903-0.768c-0.021-0.256-0.033-0.504-0.033-0.741c0-5.757,4.683-10.439,10.44-10.439 c5.244,0,9.587,3.891,10.319,8.936c0.583-1.279,1.146-3.031,0.927-4.744c-0.418-3.258-3.258-6.421-3.425-8.012 s0.534-2.897,0.116-5.152c-0.418-2.255-4.334-9.698-8.301-12.224c-2.882-1.835-4.958-3.084-13.711-3.586 c-12.331-0.707-20.794,0.099-28.225,2.358c-4.418,1.344-19.541,9.212-24.126,11.751c-5.428,3.006-7.621,3.471-11.371,4.829 c-4.333,1.569-7.086,5.012-8.172,7.614S-0.603,59.971,0.608,64.732z M69.973,41.622l-1.296-10.998 c7.179,0.126,14.629,0.691,15.283,3.207c0.388,1.491-1.575,5.05-3.926,6.097C78.218,40.737,75.401,41.043,69.973,41.622z M34.938,39.997l0.82-2.399c9.711-5.215,14.664-7.011,26.704-7.011c0.551,0,1.121,0,1.702,0l-1.383,11.728 c-12.625,1.121-27.527,2.039-27.527,2.039C36.453,41.891,34.938,39.997,34.938,39.997z"/></symbol><symbol id="sedan-car-model" viewBox="0 0 98.967 98.967"><title>sedan-car-model</title><path d="M17.275,52.156c-4.124,0-7.468,3.343-7.468,7.468c0,0.318,0.026,0.631,0.066,0.938c0.463,3.681,3.596,6.528,7.401,6.528 c3.908,0,7.112-3.004,7.437-6.83c0.017-0.209,0.031-0.422,0.031-0.637C24.743,55.499,21.4,52.156,17.275,52.156z M13.537,56.81 l1.522,1.523c-0.118,0.203-0.211,0.422-0.271,0.656h-2.146C12.752,58.177,13.063,57.435,13.537,56.81z M12.632,60.282h2.163 c0.061,0.23,0.151,0.448,0.271,0.648l-1.526,1.525C13.067,61.835,12.749,61.093,12.632,60.282z M16.629,64.263 c-0.809-0.113-1.544-0.43-2.166-0.899l1.518-1.519c0.2,0.117,0.419,0.203,0.648,0.263V64.263z M16.629,57.14 c-0.235,0.062-0.455,0.154-0.66,0.275l-1.521-1.521c0.625-0.475,1.367-0.789,2.181-0.902V57.14z M17.922,54.99 c0.814,0.113,1.557,0.429,2.181,0.903l-1.52,1.521c-0.204-0.121-0.426-0.213-0.66-0.275L17.922,54.99L17.922,54.99z M17.922,64.261v-2.152c0.23-0.061,0.447-0.146,0.647-0.264l1.519,1.519C19.466,63.833,18.73,64.148,17.922,64.261z M21.014,62.462l-1.531-1.533c0.12-0.201,0.217-0.416,0.278-0.646h2.146C21.793,61.091,21.488,61.839,21.014,62.462z M19.764,58.989c-0.061-0.234-0.153-0.453-0.271-0.656l1.524-1.523c0.471,0.625,0.782,1.367,0.894,2.18H19.764z"/><path d="M79.284,52.156c-4.124,0-7.468,3.343-7.468,7.468c0,0.318,0.026,0.631,0.066,0.938c0.463,3.681,3.596,6.528,7.4,6.528 c3.908,0,7.112-3.004,7.438-6.83c0.017-0.209,0.031-0.422,0.031-0.637C86.753,55.499,83.409,52.156,79.284,52.156z M75.546,56.81 l1.521,1.523c-0.118,0.203-0.211,0.422-0.271,0.656H74.65C74.761,58.177,75.072,57.435,75.546,56.81z M74.642,60.282h2.163 c0.061,0.23,0.151,0.448,0.271,0.648l-1.525,1.525C75.076,61.835,74.757,61.093,74.642,60.282z M78.638,64.263 c-0.809-0.113-1.544-0.43-2.166-0.899l1.518-1.519c0.2,0.117,0.419,0.203,0.648,0.263V64.263z M78.638,57.14 c-0.235,0.062-0.455,0.154-0.66,0.275l-1.521-1.521c0.625-0.475,1.366-0.789,2.181-0.902V57.14z M79.932,54.99 c0.814,0.113,1.557,0.429,2.181,0.903l-1.521,1.521c-0.204-0.121-0.426-0.215-0.66-0.275V54.99z M79.932,64.261v-2.152 c0.23-0.061,0.447-0.146,0.647-0.264l1.519,1.519C81.476,63.833,80.739,64.148,79.932,64.261z M83.023,62.462l-1.531-1.531 c0.12-0.202,0.218-0.416,0.278-0.647h2.146C83.802,61.091,83.498,61.839,83.023,62.462z M81.773,58.989 c-0.061-0.234-0.152-0.453-0.271-0.656l1.523-1.523c0.472,0.625,0.782,1.367,0.895,2.18H81.773z"/><path d="M97.216,48.29v-5.526c0-0.889-0.646-1.642-1.524-1.779c-2.107-0.33-5.842-0.953-7.52-1.47 c-2.406-0.742-11.702-4.678-14.921-5.417c-3.22-0.739-17.738-4.685-31.643,0.135c-2.353,0.815-12.938,5.875-19.162,8.506 c-1.833,0.04-19.976,3.822-20.942,6.414c-0.966,2.593-1.269,3.851-1.447,4.509c-0.178,0.658,0,3.807,1.348,6 c1.374,0.777,4.019,1.299,7.077,1.649c-0.035-0.187-0.073-0.371-0.097-0.56c-0.053-0.404-0.078-0.773-0.078-1.125 c0-4.945,4.022-8.969,8.968-8.969s8.968,4.023,8.968,8.969c0,0.254-0.017,0.506-0.036,0.754c-0.047,0.555-0.147,1.094-0.292,1.613 c0.007,0,0.024,0,0.024,0l44.516-0.896c-0.02-0.115-0.046-0.229-0.061-0.346c-0.053-0.402-0.078-0.772-0.078-1.125 c0-4.945,4.022-8.968,8.968-8.968c4.946,0,8.969,4.022,8.969,8.968c0,0.019-0.002,0.035-0.003,0.053l0.19-0.016l7.611-1.433 c0,0,2.915-1.552,2.915-5.822C98.967,49.56,97.216,48.29,97.216,48.29z M53.057,43.051L36.432,43.56 c0.306-2.491-1.169-3.05-1.169-3.05c6.609-5.999,19.929-6.202,19.929-6.202L53.057,43.051z M71.715,42.29l-15.15,0.509l1.373-8.49 c7.83-0.102,12.303,1.626,12.303,1.626l2.237,3.61L71.715,42.29z M80.256,42.238h-4.221l-4.22-5.795 c3.166,1.26,5.7,2.502,7.209,3.287C79.94,40.206,80.44,41.223,80.256,42.238z"/></symbol><symbol id="car-1" viewBox="0 0 512.011 512.011"><title>car-1</title><path d="M480,208.005h-2.624l-40.64-142.176c-5.376-15.445-24.64-28.491-42.069-28.491H117.333 c-17.429,0-36.693,13.045-42.261,29.067l-40.448,141.6H32c-15.851,0-32,16.149-32,32v187.04 c0,28.043,19.083,47.627,47.243,47.627h13.013c27.328,0,46.411-19.584,46.411-47.627v-27.04h298.667v27.04 c0,28.043,19.083,47.627,47.243,47.627H465.6c27.328,0,46.411-19.584,46.411-47.627v-187.04 C512,223.557,496.448,208.005,480,208.005z M95.403,72.848c2.4-6.891,13.675-14.176,21.931-14.176h277.333 c8.256,0,19.531,7.285,21.739,13.6l38.784,135.733H56.811L95.403,72.848z M85.333,427.045c0,12.704-6.581,26.293-25.909,26.293 H46.411c-18.496,0-25.077-13.579-25.077-26.293v-28.043c2.691,0.643,5.447,0.979,8.213,1.003h55.787V427.045z M341.333,378.672 H170.667v-42.667h170.667V378.672z M490.667,427.045c0,12.715-6.581,26.293-25.909,26.293h-13.013 c-18.485,0-25.077-13.579-25.077-26.293v-27.04h55.787c2.767-0.023,5.522-0.359,8.213-1.003V427.045z M490.667,374.277 c0,4.181-6.837,4.395-8.213,4.395H362.667v-53.333c0-5.891-4.776-10.667-10.667-10.667H160c-5.891,0-10.667,4.776-10.667,10.667 v53.333H29.547c-1.376,0-8.213-0.213-8.213-4.395V240.005c0-3.861,6.165-10.667,10.667-10.667h448 c4.683,0,10.667,5.984,10.667,10.667V374.277z"/><path d="M90.667,250.672c-26.51,0-48,21.49-48,48c0,26.51,21.49,48,48,48c26.51,0,48-21.49,48-48 C138.667,272.162,117.176,250.672,90.667,250.672z M90.667,325.339C75.939,325.339,64,313.4,64,298.672 s11.939-26.667,26.667-26.667s26.667,11.939,26.667,26.667S105.394,325.339,90.667,325.339z"/><path d="M421.333,250.672c-26.51,0-48,21.49-48,48c0,26.51,21.49,48,48,48c26.51,0,48-21.49,48-48 C469.333,272.162,447.843,250.672,421.333,250.672z M421.333,325.339c-14.728,0-26.667-11.939-26.667-26.667 s11.939-26.667,26.667-26.667S448,283.944,448,298.672S436.061,325.339,421.333,325.339z"/></symbol><symbol id="bus" viewBox="0 0 512 512"><title>bus</title><g> <g> <path d="M489.985,203.265h-11.561v-52.257c0-15.304-12.451-27.755-27.756-27.755H427.37V85.195c0-0.205-0.019-0.406-0.031-0.608 c0.012-0.202,0.031-0.403,0.031-0.608V55.616C427.37,24.949,402.421,0,371.754,0H140.246C109.579,0,84.63,24.949,84.63,55.616 v28.363c0,0.205,0.019,0.406,0.031,0.608c-0.012,0.202-0.031,0.403-0.031,0.608v38.057H61.331 c-15.305,0-27.756,12.451-27.756,27.755v52.257h-11.56c-5.522,0-10,4.477-10,10v80.44c0,5.523,4.478,10,10,10h45.843 c5.522,0,10-4.477,10-10v-80.44c0-5.523-4.478-10-10-10H53.575v-52.257c0-4.276,3.479-7.755,7.756-7.755H84.63v196.645v1.437 v100.998c0,10.094,7.132,18.544,16.619,20.602v21.497c0,15.202,12.367,27.569,27.568,27.569h31.764 c15.201,0,27.568-12.367,27.568-27.569v-21.009H323.85v21.009c0,15.202,12.367,27.569,27.568,27.569h31.764 c15.201,0,27.568-12.367,27.568-27.569v-21.497c9.487-2.058,16.619-10.509,16.619-20.602v-54.068v-46.929v-1.216v-0.221V143.252 h23.299c4.276,0,7.756,3.479,7.756,7.755v52.257h-14.282c-5.522,0-10,4.477-10,10v80.44c0,5.523,4.478,10,10,10h45.843 c5.522,0,10-4.477,10-10v-80.44C499.985,207.742,495.508,203.265,489.985,203.265z M57.857,223.265L57.857,223.265v60.44H32.015 v-60.44H57.857z M168.149,484.431L168.149,484.431c0,4.173-3.396,7.569-7.568,7.569h-31.764c-4.173,0-7.568-3.396-7.568-7.569 v-21.009h46.9V484.431z M390.751,484.431c0,4.173-3.396,7.569-7.568,7.569h-31.764c-4.173,0-7.568-3.396-7.568-7.569v-21.009h46.9 V484.431z M407.37,442.332c0,0.601-0.489,1.09-1.091,1.09h-5.528h-66.9H178.149h-66.9h-5.528c-0.602,0-1.091-0.489-1.091-1.09 v-44.068h74.328c10.221,0,18.536-8.315,18.536-18.536v-29.83h118.311v29.83c0,10.221,8.315,18.536,18.536,18.536h73.029V442.332z M105.93,378.264v-28.145h71.564v28.145H105.93z M407.37,378.264h-71.565v-28.145h71.565V378.264z M407.37,133.252v196.645 H263.306l-52.814-60.419c-3.635-4.158-9.952-4.583-14.11-0.947c-4.158,3.635-4.583,9.952-0.948,14.11l41.308,47.256H104.63 V133.252V95.195h302.74V133.252z M407.37,73.979H104.63V55.616C104.63,35.978,120.607,20,140.246,20h231.508 c19.639,0,35.616,15.978,35.616,35.616V73.979z M479.985,283.705h-25.843v-60.44h25.843V283.705z"/> </g> </g><g> <g> <path d="M287.812,407.581h-63.623c-5.522,0-10,4.477-10,10s4.478,10,10,10h63.623c5.522,0,10-4.477,10-10 S293.334,407.581,287.812,407.581z"/> </g> </g><g> <g> <path d="M186.439,243.99c-0.13-0.64-0.319-1.27-0.569-1.87c-0.25-0.6-0.561-1.19-0.92-1.73c-0.36-0.55-0.78-1.06-1.24-1.52 c-0.46-0.46-0.98-0.88-1.521-1.24c-0.541-0.36-1.13-0.67-1.729-0.92c-0.601-0.25-1.23-0.44-1.87-0.57c-1.29-0.26-2.62-0.26-3.91,0 c-0.64,0.13-1.27,0.32-1.87,0.57s-1.18,0.56-1.72,0.92c-0.55,0.36-1.06,0.78-1.521,1.24c-0.47,0.46-0.88,0.97-1.25,1.52 c-0.359,0.54-0.67,1.13-0.92,1.73s-0.439,1.23-0.569,1.87s-0.19,1.3-0.19,1.95c0,0.66,0.061,1.31,0.19,1.96 c0.13,0.64,0.319,1.27,0.569,1.87c0.25,0.6,0.561,1.18,0.92,1.72c0.37,0.55,0.78,1.06,1.25,1.52c0.461,0.47,0.971,0.88,1.521,1.25 c0.54,0.36,1.12,0.67,1.72,0.92c0.601,0.25,1.23,0.44,1.87,0.57c0.65,0.13,1.3,0.19,1.96,0.19c0.65,0,1.311-0.06,1.95-0.19 c0.64-0.13,1.27-0.32,1.87-0.57c0.6-0.25,1.189-0.56,1.729-0.92c0.54-0.37,1.061-0.78,1.521-1.25c0.46-0.46,0.88-0.97,1.24-1.52 c0.359-0.54,0.67-1.12,0.92-1.72c0.25-0.6,0.439-1.23,0.569-1.87c0.13-0.65,0.2-1.3,0.2-1.96 C186.639,245.29,186.569,244.63,186.439,243.99z"/> </g> </g></symbol><symbol id="dashboard" viewBox="0 0 512 512"><title>dashboard</title><g transform="translate(1 1)"> <g> <g> <path d="M336.067,208.92l-40.96,24.747c-14.507,8.533-29.867,16.213-44.373,23.04c-4.267,1.707-9.387,4.267-14.507,6.827 c-17.92,9.387-27.307,29.013-23.04,48.64c3.413,15.36,16.213,28.16,31.573,31.573c3.413,0.853,6.827,0.853,10.24,0.853 c16.213,0,30.72-9.387,38.4-23.893c1.707-4.267,4.267-9.387,6.827-14.507c7.68-14.507,14.507-29.867,23.04-44.373l24.747-40.96 c1.707-3.413,0.853-6.827-1.707-10.24C343.747,207.213,339.48,207.213,336.067,208.92z M308.76,252.44 c-9.387,15.36-17.067,30.72-23.893,46.08c-1.707,5.12-4.267,9.387-6.827,14.507c-5.12,11.093-17.067,16.213-29.013,13.653 c-9.387-1.707-17.067-9.387-18.773-18.773c-2.56-11.947,2.56-23.893,13.653-29.013c4.267-2.56,9.387-4.267,14.507-6.827 c15.36-7.68,31.573-15.36,46.08-23.893l11.093-6.827L308.76,252.44z"/> <path d="M492.719,207.208c-0.108-0.575-0.27-1.146-0.492-1.702c-0.223-0.558-0.507-1.069-0.837-1.537 c-12.787-30.616-31.365-58.265-54.348-81.565c-0.324-0.482-0.701-0.944-1.135-1.378s-0.896-0.811-1.378-1.135 C388.233,74.226,324.764,45.933,255,45.933c-33.418,0-65.389,6.5-94.725,18.281c-0.575,0.108-1.146,0.27-1.701,0.492 c-0.557,0.223-1.069,0.507-1.537,0.837c-30.616,12.787-58.265,31.365-81.565,54.348c-0.482,0.324-0.944,0.701-1.378,1.135 s-0.812,0.896-1.135,1.378C27.293,168.7-1,232.169-1,301.933c0,58.027,18.773,113.493,55.467,158.72 c1.707,2.56,4.267,3.413,6.827,3.413h387.413c2.56,0,5.12-0.853,6.827-3.413C492.227,415.427,511,359.96,511,301.933 C511,268.515,504.5,236.544,492.719,207.208z M445.293,447H65.56c-11.539-14.88-21.122-30.844-28.695-47.616l23.575-9.557 c4.267-1.707,5.973-6.827,4.267-11.093c-1.707-4.267-6.827-5.973-11.093-4.267l-23.11,9.369 c-8.574-23.342-13.394-48.021-14.278-73.369H75.8c5.12,0,8.533-3.413,8.533-8.533S80.92,293.4,75.8,293.4H16.237 c0.957-26.907,6.416-52.715,15.648-76.694L55.32,226.84c0.853,0.853,2.56,0.853,3.413,0.853c3.413,0,5.973-1.707,7.68-5.12 c1.707-4.267,0-9.387-4.267-11.093l-23.672-10.237c10.699-22.831,24.906-43.721,41.922-61.967l17.59,17.59 c1.707,1.707,3.413,2.56,5.973,2.56s4.267-0.853,5.973-2.56c3.413-3.413,3.413-8.533,0-11.947l-17.59-17.59 c19.117-17.828,41.131-32.581,65.244-43.438l9.52,23.482c0.853,3.413,4.267,5.12,7.68,5.12c0.853,0,1.707,0,3.413-0.853 c4.267-1.707,5.973-6.827,4.267-11.093l-9.329-23.012c23.021-8.463,47.679-13.452,73.329-14.364v59.563 c0,5.12,3.413,8.533,8.533,8.533s8.533-3.413,8.533-8.533V63.17c26.907,0.957,52.715,6.416,76.694,15.648l-10.134,23.436 c-1.707,4.267,0,9.387,4.267,11.093c0.853,0.853,2.56,0.853,3.413,0.853c3.413,0,6.827-2.56,7.68-5.12l10.237-23.672 c22.831,10.699,43.721,24.906,61.967,41.922l-17.59,17.59c-3.413,3.413-3.413,8.533,0,11.947c1.707,1.707,3.413,2.56,5.973,2.56 c1.707,0,4.267-0.853,5.973-2.56l17.59-17.59c17.828,19.117,32.581,41.131,43.438,65.244l-23.482,9.52 c-4.267,1.707-5.973,6.827-4.267,11.093c0.853,3.413,4.267,5.12,7.68,5.12c0.853,0,1.707-0.853,3.413-0.853l23.013-9.329 c8.463,23.021,13.452,47.679,14.364,73.329H434.2c-5.12,0-8.533,3.413-8.533,8.533s3.413,8.533,8.533,8.533h59.575 c-0.927,26.593-6.172,52.45-15.418,76.799l-23.677-10.239c-4.267-1.707-9.387,0-11.093,4.267c-1.707,4.267,0,9.387,4.267,11.093 l23.981,10.37C464.644,418.298,455.773,433.121,445.293,447z"/> </g> </g> </g></symbol><symbol id="auto-sale" viewBox="0 0 423.504 423.504"><title>auto-sale</title><path d="M113.656,315.454c0,4.971-4.029,9-9,9H84.163c-4.971,0-9-4.029-9-9s4.029-9,9-9h20.493 C109.627,306.454,113.656,310.483,113.656,315.454z M86.274,227.405L2.636,143.764c-3.515-3.515-3.514-9.214,0-12.729l83.639-83.639 c3.515-3.514,9.213-3.514,12.728,0l83.64,83.639c1.688,1.688,2.636,3.978,2.636,6.364v83.641c0,4.971-4.029,9-9,9h-83.64 C90.251,230.04,87.962,229.092,86.274,227.405z M21.728,137.4l74.638,74.641h70.912v-70.913l-74.64-74.639L21.728,137.4z M192.025,270.962h10.122c4.971,0,9-4.029,9-9s-4.029-9-9-9h-10.122c-4.971,0-9,4.029-9,9S187.054,270.962,192.025,270.962z M137.551,191.901c4.971,0,9-4.029,9-9s-4.029-9-9-9h-0.033c-4.971,0-8.984,4.029-8.984,9S132.581,191.901,137.551,191.901z M300.77,336.286c0,4.971-4.029,9-9,9h-51.964c-4.138,19.104-21.172,33.457-41.497,33.457c-20.843,0-38.226-15.097-41.789-34.93 c-7.213-2.285-13.163-7.099-16.357-13.521c-1.597-3.199-2.41-6.62-2.41-10.154v-60.013c0-4.971,4.029-9,9-9s9,4.029,9,9v60.013 c0,0.719,0.175,1.434,0.521,2.127c0.308,0.617,0.765,1.244,1.36,1.836c5.25-17.489,21.498-30.269,40.674-30.269 c20.323,0,37.357,14.354,41.497,33.454h51.964C296.74,327.286,300.77,331.315,300.77,336.286z M222.766,336.287 c0-13.484-10.971-24.455-24.457-24.455c-13.419,0-24.348,10.862-24.456,24.255c0.002,0.111,0.001,0.224,0,0.336 c0.073,13.423,11.016,24.32,24.456,24.32C211.794,360.743,222.766,349.772,222.766,336.287z M423.467,300.779l-0.026,5.945 c-0.019,3.783-0.039,8.098-0.039,13.413c0,10.763-7.741,20.082-18.655,23.626c-3.542,19.856-20.937,34.979-41.796,34.979 c-23.411,0-42.457-19.046-42.457-42.456s19.046-42.455,42.457-42.455c19.149,0,35.377,12.741,40.65,30.193 c1.129-1.144,1.801-2.493,1.801-3.888c0-5.35,0.021-9.692,0.039-13.499l0.026-5.939c0.033-7.515,0.075-16.866-0.028-21.417 c-0.074-3.287-0.163-5.984-0.394-8.317H266.589c-3.229,0-10.794,0-33.942-22.876c-7.052-6.97-21.071-21.801-23.651-28.048 c-1.897-4.594,0.29-9.856,4.883-11.753c4.53-1.869,9.697,0.225,11.665,4.675c1.224,2.192,8.543,11.172,19.151,21.724 c13.36,13.291,20.46,17.595,22.394,18.278h127.842c-2.895-2.775-6.607-6.064-11.377-10.291c-2.478-2.194-5.198-4.605-8.187-7.287 c-2.178-1.953-4.348-4.026-6.446-6.031c-3.061-2.925-6.226-5.949-9.522-8.709c-2.907-2.436-5.658-4.752-8.275-6.956 c-33.401-28.124-42.378-35.684-70.547-35.684h-62.132c-4.971,0-9-4.029-9-9s4.029-9,9-9h62.132 c34.737,0,48.614,11.685,82.141,39.915c2.605,2.194,5.346,4.501,8.239,6.925c3.747,3.138,7.129,6.369,10.399,9.494 c2.09,1.997,4.064,3.883,6.032,5.648c2.958,2.654,5.65,5.04,8.103,7.212c21.571,19.112,27.369,24.249,27.944,49.674 C423.543,283.669,423.501,293.156,423.467,300.779z M387.405,336.194c-0.051-13.441-11.002-24.362-24.455-24.362 c-13.485,0-24.457,10.971-24.457,24.455c0,13.485,10.972,24.456,24.457,24.456c13.478,0,24.444-10.961,24.455-24.438 C387.405,336.268,387.405,336.231,387.405,336.194z M362.96,327.287h-0.021c-4.971,0-8.989,4.029-8.989,9s4.04,9,9.011,9 s9-4.029,9-9S367.931,327.287,362.96,327.287z M104.656,274.129H58.827c-4.971,0-9,4.029-9,9s4.029,9,9,9h45.829 c4.971,0,9-4.029,9-9S109.627,274.129,104.656,274.129z M198.321,327.287h-0.023c-4.971,0-8.988,4.029-8.988,9s4.041,9,9.012,9 s9-4.029,9-9S203.292,327.287,198.321,327.287z"/></symbol><symbol id="handshake" viewBox="0 0 512.003 512.003"><title>handshake</title><g> <g> <path d="M509.605,171.075l-99.3-99.301c-3.193-3.194-8.37-3.194-11.565,0l-49.65,49.65c-1.533,1.533-2.394,3.613-2.394,5.782 c0,2.169,0.861,4.249,2.394,5.782l4.953,4.953l-11.382,11.38c-7.389,7.386-18.854,9.402-28.528,5.011 c-9.07-4.117-19.153-6.292-29.161-6.292c-11.883,0-23.496,2.983-33.814,8.633c-4.303-1.06-8.719-1.603-13.179-1.603 c-6.45,0-12.785,1.113-18.829,3.31c-9.651,3.506-19.996,1.333-27.003-5.672L171.71,132.27l2.434-2.434 c1.533-1.533,2.394-3.613,2.394-5.782c0-2.169-0.861-4.249-2.394-5.782l-49.65-49.65c-3.195-3.194-8.371-3.194-11.565,0 L2.395,179.156c-3.193,3.194-3.193,8.371,0,11.564l49.649,49.65c1.534,1.534,3.613,2.395,5.783,2.395s4.248-0.861,5.783-2.395 l2.961-2.961l14.414,14.414c3.637,3.637,6.048,8.178,6.971,13.131c4.786,25.683,17.086,49.032,35.57,67.526l2.715,2.715 c-5.214,5.491-8.082,12.645-8.082,20.245c0,7.861,3.062,15.252,8.62,20.811c5.738,5.738,13.273,8.606,20.811,8.606 c0.491,0,0.98-0.013,1.471-0.038c-0.398,8.019,2.458,16.17,8.568,22.282c5.559,5.559,12.95,8.62,20.811,8.62 c0.219,0,0.437-0.011,0.656-0.016c-0.168,7.749,2.691,15.552,8.591,21.453c5.559,5.56,12.95,8.62,20.812,8.62 c7.861,0,15.251-3.062,20.811-8.62c0.468-0.468,0.909-0.952,1.34-1.442c2.895,1.009,5.957,1.546,9.052,1.546 c7.353,0,14.261-2.865,19.441-8.062c2.757-2.756,4.849-5.998,6.211-9.529l0.837,0.837c5.359,5.359,12.398,8.039,19.437,8.039 c7.039,0,14.078-2.68,19.437-8.039c2.848-2.848,4.988-6.211,6.344-9.878c4.797,3.489,10.476,5.236,16.158,5.236 c7.039,0,14.082-2.679,19.446-8.036c5.191-5.191,8.05-12.097,8.05-19.445c0-2.22-0.266-4.397-0.773-6.502 c5.237-1.064,10.049-3.635,13.91-7.501c5.191-5.191,8.05-12.094,8.05-19.437c0-5.785-1.782-11.292-5.073-15.91l6.56-6.56 c18.699-18.708,31.052-42.35,35.725-68.371c0.783-4.357,2.941-8.404,6.243-11.707l24.398-24.398l4.289,4.289 c1.597,1.597,3.69,2.395,5.783,2.395c2.092,0,4.186-0.798,5.783-2.395l49.65-49.65c1.533-1.533,2.394-3.613,2.394-5.782 S511.138,172.609,509.605,171.075z M57.827,223.025l-38.086-38.086L118.71,85.97l38.087,38.086L57.827,223.025z M156.836,364.689 c-5.097,5.096-13.392,5.098-18.493,0c-2.47-2.471-3.83-5.754-3.83-9.247c0-3.492,1.361-6.776,3.831-9.246 c2.549-2.549,5.896-3.824,9.245-3.824c3.348,0,6.698,1.275,9.246,3.824C161.933,351.294,161.933,359.59,156.836,364.689z M187.684,395.537c-2.468,2.471-5.751,3.83-9.246,3.83c-3.492,0-6.776-1.361-9.245-3.83c-5.099-5.098-5.099-13.394,0-18.493 c2.549-2.549,5.896-3.824,9.246-3.824c3.347,0,6.697,1.275,9.245,3.824C192.784,382.142,192.784,390.439,187.684,395.537z M217.742,425.594c-2.47,2.47-5.753,3.83-9.245,3.83c-3.493,0-6.777-1.361-9.246-3.83c-5.099-5.098-5.099-13.394,0-18.493 c2.549-2.549,5.896-3.824,9.246-3.824c3.347,0,6.697,1.275,9.245,3.824C222.841,412.2,222.841,420.496,217.742,425.594z M356.63,362.822c-2.102,2.104-4.897,3.263-7.869,3.263s-5.767-1.159-7.873-3.268l-79.33-79.312 c-3.196-3.193-8.372-3.192-11.565,0.002c-3.192,3.193-3.191,8.371,0.002,11.564l85.451,85.442c2.103,2.102,3.26,4.898,3.26,7.872 c0,2.98-1.158,5.779-3.257,7.878c-4.347,4.343-11.416,4.344-15.756,0.003l-14.416-14.416c-0.08-0.083-0.158-0.167-0.241-0.249 c-0.024-0.024-0.051-0.045-0.076-0.069l-66.267-66.267c-3.195-3.193-8.371-3.193-11.565,0c-3.194,3.193-3.194,8.371,0,11.564 l66.48,66.479c2.032,2.083,3.151,4.839,3.151,7.763c0,2.974-1.159,5.77-3.261,7.872c-4.338,4.341-11.401,4.341-15.743,0 l-72.085-72.086c-3.195-3.194-8.371-3.194-11.565,0c-3.194,3.193-3.194,8.371,0,11.564l53.434,53.435 c0.015,0.015,0.027,0.032,0.043,0.046c2.101,2.097,3.257,4.888,3.257,7.859c0,2.973-1.158,5.769-3.269,7.88 c-2.099,2.104-4.893,3.263-7.87,3.263c-0.719,0-1.422-0.074-2.11-0.204c1.323-8.913-1.436-18.32-8.282-25.167 c-5.559-5.558-12.95-8.62-20.811-8.62c-0.219,0-0.437,0.011-0.656,0.016c0.168-7.749-2.69-15.552-8.591-21.453 c-5.56-5.558-12.95-8.62-20.812-8.62c-0.492,0-0.981,0.012-1.469,0.036c0.393-8.014-2.463-16.158-8.57-22.266 c-7.434-7.433-17.884-10.044-27.444-7.847l-5.864-5.864c-16.14-16.147-26.878-36.535-31.057-58.96 c-1.531-8.213-5.502-15.717-11.483-21.699l-14.415-14.415l82.01-82.01l20.438,20.438c7.856,7.856,18.552,12.06,29.507,12.06 c4.906,0,9.867-0.844,14.646-2.581c2.318-0.843,4.715-1.448,7.144-1.832l-50.632,50.633c-6.195,6.194-9.607,14.43-9.607,23.191 c0,8.76,3.412,16.996,9.606,23.19c6.394,6.394,14.79,9.59,23.19,9.589c8.398,0,16.797-3.198,23.192-9.589l25.43-25.43l6.883,6.888 c0.002,0.002,0.003,0.003,0.005,0.005l0.286,0.286l0.275,0.275c0.001,0.001,0.003,0.003,0.005,0.004l0.005,0.005 c0.079,0.078,0.156,0.152,0.233,0.226l95.881,95.881c2.103,2.102,3.26,4.898,3.26,7.872 C359.893,357.921,358.736,360.717,356.63,362.822z M408.137,240.834c-5.674,5.675-9.4,12.723-10.774,20.381 c-4.08,22.72-14.867,43.364-31.193,59.698l-6.284,6.285l-51.731-51.731c1.124,0.083,2.253,0.138,3.39,0.138 c5.238,0,10.598-0.918,15.934-3.101c4.18-1.71,6.182-6.485,4.472-10.664c-1.71-4.179-6.481-6.182-10.664-4.472 c-21.046,8.611-46.278-15.12-49.087-17.855c-0.047-0.046-0.094-0.091-0.142-0.135l-0.29-0.29 c-0.001-0.001-0.002-0.001-0.003-0.002l-0.253-0.252c-0.001-0.001-0.003-0.003-0.005-0.004l-6.884-6.889l7.806-7.807 c3.195-3.194,3.195-8.371,0.001-11.565c-3.194-3.192-8.371-3.193-11.564,0l-13.57,13.57c-0.005,0.005-0.011,0.01-0.016,0.015 c-0.005,0.005-0.01,0.011-0.015,0.016l-31.2,31.2c-6.412,6.411-16.842,6.409-23.252,0c-3.105-3.105-4.815-7.234-4.815-11.626 c0-4.392,1.71-8.521,4.816-11.626l53.852-53.854c2.996-2.995,6.326-5.63,9.905-7.837c8.503-5.256,18.324-8.034,28.401-8.034 c7.693,0,15.439,1.67,22.403,4.831c15.842,7.188,34.671,3.839,46.851-8.338l11.383-11.381l66.929,66.929L408.137,240.834z M454.172,214.944l-87.736-87.736l38.087-38.086l87.736,87.736L454.172,214.944z"/> </g> </g><g> <g> <circle cx="462.41" cy="183.11" r="8.177"/> </g> </g><g> <g> <circle cx="53.567" cy="191.189" r="8.177"/> </g> </g></symbol><symbol id="bag" viewBox="0 0 512 512"><title>bag</title><g> <g> <path d="M488.727,279.273c-6.982,0-11.636,4.655-11.636,11.636v151.273c0,6.982-4.655,11.636-11.636,11.636H46.545 c-6.982,0-11.636-4.655-11.636-11.636V290.909c0-6.982-4.655-11.636-11.636-11.636s-11.636,4.655-11.636,11.636v151.273 c0,19.782,15.127,34.909,34.909,34.909h418.909c19.782,0,34.909-15.127,34.909-34.909V290.909 C500.364,283.927,495.709,279.273,488.727,279.273z"/> </g> </g><g> <g> <path d="M477.091,116.364H34.909C15.127,116.364,0,131.491,0,151.273v74.473C0,242.036,11.636,256,26.764,259.491l182.691,40.727 v37.236c0,6.982,4.655,11.636,11.636,11.636h69.818c6.982,0,11.636-4.655,11.636-11.636v-37.236l182.691-40.727 C500.364,256,512,242.036,512,225.745v-74.473C512,131.491,496.873,116.364,477.091,116.364z M279.273,325.818h-46.545v-46.545 h46.545V325.818z M488.727,225.745c0,5.818-3.491,10.473-9.309,11.636l-176.873,39.564v-9.309c0-6.982-4.655-11.636-11.636-11.636 h-69.818c-6.982,0-11.636,4.655-11.636,11.636v9.309L32.582,237.382c-5.818-1.164-9.309-5.818-9.309-11.636v-74.473 c0-6.982,4.655-11.636,11.636-11.636h442.182c6.982,0,11.636,4.655,11.636,11.636V225.745z"/> </g> </g><g> <g> <path d="M314.182,34.909H197.818c-19.782,0-34.909,15.127-34.909,34.909v11.636c0,6.982,4.655,11.636,11.636,11.636 s11.636-4.655,11.636-11.636V69.818c0-6.982,4.655-11.636,11.636-11.636h116.364c6.982,0,11.636,4.655,11.636,11.636v11.636 c0,6.982,4.655,11.636,11.636,11.636c6.982,0,11.636-4.655,11.636-11.636V69.818C349.091,50.036,333.964,34.909,314.182,34.909z"/> </g> </g></symbol><symbol id="car" viewBox="0 0 512 512"><title>car</title><g> <g> <path d="M401.067,287.834c-23.526,0-42.667,19.14-42.667,42.667c0,23.526,19.14,42.667,42.667,42.667 c23.526,0,42.667-19.14,42.667-42.667C443.733,306.975,424.593,287.834,401.067,287.834z M401.067,356.101 c-14.114,0-25.6-11.486-25.6-25.6s11.486-25.6,25.6-25.6c14.114,0,25.6,11.486,25.6,25.6S415.181,356.101,401.067,356.101z"/> </g> </g><g> <g> <path d="M110.933,287.834c-23.526,0-42.667,19.14-42.667,42.667c0,23.526,19.14,42.667,42.667,42.667 c23.526,0,42.667-19.14,42.667-42.667C153.6,306.975,134.46,287.834,110.933,287.834z M110.933,356.101 c-14.114,0-25.6-11.486-25.6-25.6s11.486-25.6,25.6-25.6s25.6,11.486,25.6,25.6S125.047,356.101,110.933,356.101z"/> </g> </g><g> <g> <path d="M503.467,287.834v-51.2c0-3.678-2.347-6.938-5.837-8.098l-48.154-16.051c-18.133-30.711-43.059-59.938-98.142-69.589 c-0.102-0.017-0.205-0.034-0.307-0.051c-101.717-14.063-178.091,8.883-227.123,68.224C67.217,211.888,8.533,229.765,8.533,262.234 v25.6c-4.71,0-8.533,3.823-8.533,8.533v34.133c0,4.71,3.823,8.533,8.533,8.533h34.133c4.71,0,8.533-3.823,8.533-8.533 c0-32.939,26.795-59.733,59.733-59.733s59.733,26.795,59.733,59.733c0,4.71,3.823,8.533,8.533,8.533h153.6 c4.71,0,8.533-3.823,8.533-8.533c0-32.939,26.795-59.733,59.733-59.733c32.939,0,59.733,26.795,59.733,59.733 c0,4.71,3.823,8.533,8.533,8.533h34.133c4.71,0,8.533-3.823,8.533-8.533v-34.133C512,291.657,508.177,287.834,503.467,287.834z M392.951,175.672c14.822,9.088,25.865,21.086,35.447,35.362h-35.78L392.951,175.672z M290.133,155.9 c18.253-0.247,37.666,0.973,58.411,3.84c10.274,1.809,19.302,4.378,27.426,7.569l-0.418,43.733h-85.419V155.9z M273.067,156.626 v54.417H146.961C178.594,178.411,220.305,160.38,273.067,156.626z M494.933,321.968h-17.536 c-4.258-38.349-36.864-68.267-76.331-68.267s-72.073,29.918-76.331,68.267H187.264c-4.258-38.349-36.864-68.267-76.331-68.267 s-72.073,29.918-76.331,68.267H17.067v-17.067c4.71,0,8.533-3.823,8.533-8.533v-25.6h8.533c4.71,0,8.533-3.823,8.533-8.533 c0-4.71-3.823-8.533-8.533-8.533h-4.42c11.546-12.535,46.865-25.6,98.287-25.6h314.342l44.058,14.686v10.914h-8.533 c-4.71,0-8.533,3.823-8.533,8.533c0,4.71,3.823,8.533,8.533,8.533h8.533v25.6c0,4.71,3.823,8.533,8.533,8.533V321.968z"/> </g> </g></symbol><symbol id="checklist" viewBox="0 0 512 512"><title>checklist</title><g> <g> <path d="M433.231,39.385h-68.923v-9.846c0-5.437-4.409-9.846-9.846-9.846h-59.091C286.139,7.419,271.533,0,256,0 s-30.139,7.419-39.371,19.692h-59.091c-5.437,0-9.846,4.409-9.846,9.846v9.846H78.769c-5.437,0-9.846,4.409-9.846,9.846v452.923 c0,5.437,4.409,9.846,9.846,9.846h354.462c5.437,0,9.846-4.409,9.846-9.846V49.231C443.077,43.794,438.668,39.385,433.231,39.385z M167.385,39.385h54.513c3.514,0,6.762-1.873,8.522-4.915c5.275-9.115,15.076-14.777,25.58-14.777 c10.504,0,20.306,5.663,25.579,14.777c1.759,3.042,5.008,4.915,8.522,4.915h54.514v39.385H167.385V39.385z M423.385,452.923 h-49.231c-5.437,0-9.846,4.409-9.846,9.846s4.409,9.846,9.846,9.846h49.231v19.692H88.615V59.077h59.077v29.538 c0,5.437,4.409,9.846,9.846,9.846h196.923c5.437,0,9.846-4.409,9.846-9.846V59.077h59.077V452.923z"/> </g> </g><g> <g> <path d="M203.151,130.22c-4.212-3.439-10.414-2.814-13.854,1.398l-40.418,49.492l-22.943-29.602 c-3.331-4.298-9.516-5.083-13.814-1.751c-4.298,3.331-5.082,9.516-1.751,13.814l30.523,39.385 c1.838,2.371,4.656,3.775,7.656,3.813c0.042,0,0.085,0,0.126,0c2.954,0,5.755-1.327,7.626-3.618l48.246-59.077 C207.988,139.863,207.363,133.66,203.151,130.22z"/> </g> </g><g> <g> <path d="M393.846,137.846H236.308c-5.437,0-9.846,4.409-9.846,9.846c0,5.437,4.409,9.846,9.846,9.846h157.538 c5.437,0,9.846-4.409,9.846-9.846C403.692,142.255,399.283,137.846,393.846,137.846z"/> </g> </g><g> <g> <path d="M295.385,177.231h-59.077c-5.437,0-9.846,4.409-9.846,9.846c0,5.437,4.409,9.846,9.846,9.846h59.077 c5.437,0,9.846-4.409,9.846-9.846C305.231,181.64,300.822,177.231,295.385,177.231z"/> </g> </g><g> <g> <path d="M203.151,248.374c-4.212-3.439-10.414-2.814-13.854,1.398l-40.418,49.492l-22.943-29.602 c-3.331-4.298-9.516-5.083-13.814-1.751c-4.298,3.331-5.082,9.516-1.751,13.814l30.523,39.385 c1.838,2.371,4.656,3.775,7.656,3.813c0.042,0,0.085,0,0.126,0c2.954,0,5.755-1.327,7.626-3.618l48.246-59.077 C207.988,258.016,207.363,251.813,203.151,248.374z"/> </g> </g><g> <g> <path d="M393.846,256H236.308c-5.437,0-9.846,4.409-9.846,9.846c0,5.437,4.409,9.846,9.846,9.846h157.538 c5.437,0,9.846-4.409,9.846-9.846C403.692,260.409,399.283,256,393.846,256z"/> </g> </g><g> <g> <path d="M295.385,295.385h-59.077c-5.437,0-9.846,4.409-9.846,9.846s4.409,9.846,9.846,9.846h59.077 c5.437,0,9.846-4.409,9.846-9.846S300.822,295.385,295.385,295.385z"/> </g> </g><g> <g> <path d="M203.151,366.528c-4.212-3.439-10.414-2.814-13.854,1.398l-40.418,49.492l-22.943-29.602 c-3.331-4.298-9.516-5.083-13.814-1.751c-4.298,3.331-5.082,9.516-1.751,13.814l30.523,39.385 c1.838,2.371,4.656,3.775,7.656,3.813c0.042,0,0.085,0,0.126,0c2.954,0,5.755-1.327,7.626-3.618l48.246-59.077 C207.988,376.17,207.363,369.967,203.151,366.528z"/> </g> </g><g> <g> <path d="M393.846,374.154H236.308c-5.437,0-9.846,4.409-9.846,9.846s4.409,9.846,9.846,9.846h157.538 c5.437,0,9.846-4.409,9.846-9.846S399.283,374.154,393.846,374.154z"/> </g> </g><g> <g> <path d="M295.385,413.538h-59.077c-5.437,0-9.846,4.409-9.846,9.846c0,5.437,4.409,9.846,9.846,9.846h59.077 c5.437,0,9.846-4.409,9.846-9.846C305.231,417.948,300.822,413.538,295.385,413.538z"/> </g> </g><g> <g> <path d="M351.576,455.808c-1.83-1.832-4.371-2.885-6.96-2.885c-2.59,0-5.13,1.053-6.961,2.885 c-1.831,1.832-2.885,4.372-2.885,6.961s1.053,5.13,2.885,6.96c1.831,1.831,4.372,2.886,6.961,2.886c2.59,0,5.13-1.054,6.96-2.886 c1.832-1.83,2.886-4.371,2.886-6.96S353.408,457.639,351.576,455.808z"/> </g> </g></symbol><symbol id="oil" viewBox="0 0 512 512"><title>oil</title><g> <g> <path d="M477.875,136.533h-59.752c-1.946,0-3.842,0.201-5.7,0.516c-0.887-0.313-1.828-0.516-2.823-0.516h-68.267V128 c0-4.713-3.821-8.533-8.533-8.533h-26.219c-4.154-28.908-29.075-51.2-59.115-51.2s-54.96,22.292-59.115,51.2h-26.219 c-4.713,0-8.533,3.821-8.533,8.533v8.533H42.617c-14.088,0-25.55,11.483-25.55,25.6c0,14.117,11.462,25.6,25.55,25.6H153.6v9.39 c-19.45,3.955-34.133,21.193-34.133,41.798v162.158c0,23.519,19.127,42.654,42.64,42.654h170.719 c23.513,0,42.642-19.135,42.642-42.654V238.921c0-20.605-14.683-37.842-34.133-41.797v-9.39H384v76.8 c0,18.821,15.308,34.133,34.123,34.133h59.752c18.817,0,34.125-15.312,34.125-34.133v-93.865 C512,151.846,496.692,136.533,477.875,136.533z M247.467,85.333c20.605,0,37.843,14.682,41.806,34.133H205.66 C209.624,100.015,226.861,85.333,247.467,85.333z M170.667,179.2v-34.133v-8.533h153.6v8.533V179.2v17.067h-153.6V179.2z M42.617,170.667c-4.756,0-8.483-3.748-8.483-8.533c0-4.706,3.806-8.533,8.483-8.533H153.6v17.067H42.617z M358.4,238.921v162.158 c0,14.108-11.473,25.588-25.575,25.588H162.106c-14.1,0-25.573-11.479-25.573-25.587V238.921 c0-14.108,11.473-25.587,25.573-25.587h0.027H332.8h0.025C346.927,213.333,358.4,224.813,358.4,238.921z M384,170.667h-42.667 V153.6h47.284C385.7,158.628,384,164.446,384,170.667z M494.933,264.533c0,9.41-7.652,17.067-17.058,17.067h-59.752 c-9.404,0-17.056-7.656-17.056-17.067v-93.865c0-9.413,7.652-17.069,17.056-17.069h59.752c9.406,0,17.058,7.656,17.058,17.069 V264.533z"/> </g> </g><g> <g> <path d="M49.688,217.017c-1.594-2.306-4.217-3.683-7.021-3.683s-5.427,1.377-7.021,3.683C29.694,225.633,0,269.658,0,290.133 C0,313.66,19.14,332.8,42.667,332.8s42.667-19.14,42.667-42.667C85.333,269.658,55.64,225.633,49.688,217.017z M42.667,315.733 c-14.117,0-25.6-11.483-25.6-25.6c0-9.321,13.319-33.644,25.6-52.835c12.281,19.192,25.6,43.515,25.6,52.835 C68.267,304.25,56.783,315.733,42.667,315.733z"/> </g> </g></symbol><symbol id="gearbox-2" viewBox="0 0 512 512"><title>gearbox-2</title><path d="M373.522,420.652c3.9-5.551,6.211-12.297,6.211-19.585c0-17.563-13.313-32.06-30.358-33.921 c3.003-5.076,4.758-10.97,4.758-17.279c0-17.521-13.304-31.985-30.358-33.902c3.003-5.08,4.758-10.981,4.758-17.298 c0-18.821-15.309-34.133-34.128-34.133H294.4V153.6c0-0.377-0.064-0.737-0.111-1.101c25.441-13.692,42.778-40.573,42.778-71.432 C337.067,36.367,300.7,0,256,0s-81.067,36.367-81.067,81.067c0,30.859,17.336,57.74,42.778,71.432 c-0.047,0.364-0.111,0.724-0.111,1.101v110.933h-0.005c-18.819,0-34.128,15.312-34.128,34.133c0,6.317,1.755,12.218,4.758,17.298 c-17.055,1.917-30.358,16.381-30.358,33.902c0,6.309,1.755,12.203,4.758,17.279c-17.045,1.861-30.358,16.358-30.358,33.921 c0,7.288,2.311,14.034,6.211,19.585c-18.48,6.313-31.811,23.831-31.811,44.415v38.4c0,4.713,3.821,8.533,8.533,8.533h281.6 c4.713,0,8.533-3.821,8.533-8.533v-38.4C405.333,444.483,392.003,426.964,373.522,420.652z M192,81.067c0-35.29,28.71-64,64-64 s64,28.71,64,64c0,35.29-28.71,64-64,64S192,116.356,192,81.067z M277.333,159.265v105.269h-42.667V159.265 c6.802,1.858,13.95,2.869,21.333,2.869S270.531,161.122,277.333,159.265z M217.595,281.6h8.538h59.733h8.539 c9.407,0,17.062,7.656,17.062,17.067s-7.654,17.067-17.062,17.067h-76.81c-9.407,0-17.062-7.656-17.062-17.067 S208.188,281.6,217.595,281.6z M192.075,332.8h25.52h76.81h25.52c9.452,0,17.142,7.656,17.142,17.067s-7.69,17.067-17.142,17.067 h-127.85c-9.452,0-17.142-7.656-17.142-17.067S182.623,332.8,192.075,332.8z M166.337,384h25.738h127.85h25.738 c9.376,0,17.004,7.656,17.004,17.067c0,9.41-7.628,17.067-17.004,17.067H166.337c-9.376,0-17.004-7.656-17.004-17.067 C149.333,391.656,156.962,384,166.337,384z M388.267,494.933H123.733v-29.867c0-16.469,13.406-29.867,29.884-29.867h12.72h179.325 h12.72c16.478,0,29.884,13.398,29.884,29.867V494.933z"/></symbol><symbol id="gearbox-1" viewBox="0 0 512 512"><title>gearbox-1</title><path d="M369.231,187.077c51.577,0,93.538-41.962,93.538-93.538C462.769,41.962,420.808,0,369.231,0s-93.538,41.962-93.538,93.538 c0,17.192,4.683,33.302,12.809,47.159c-0.371,0.366-0.738,0.739-1.056,1.173L182.088,285.538h-34.309 c-21.764,0-39.471,17.668-39.471,39.385c0,7.28,2.025,14.081,5.49,19.937C94.13,347.008,78.769,363.735,78.769,384 c0,8.409,2.667,16.193,7.167,22.598c-21.323,7.284-36.705,27.498-36.705,51.248v44.308c0,5.438,4.409,9.846,9.846,9.846H384 c5.438,0,9.846-4.409,9.846-9.846v-44.308c0-23.751-15.382-43.964-36.705-51.248c4.499-6.404,7.167-14.189,7.167-22.598 c0-20.265-15.361-36.992-35.029-39.139c3.465-5.857,5.49-12.658,5.49-19.937c0-21.716-17.707-39.385-39.471-39.385h-20.901 L342.623,183.2C351.062,185.709,359.988,187.077,369.231,187.077z M369.231,19.692c40.719,0,73.846,33.127,73.846,73.846 c0,40.719-33.127,73.846-73.846,73.846s-73.846-33.127-73.846-73.846C295.385,52.82,328.512,19.692,369.231,19.692z M374.154,457.846v34.462H68.923v-34.462c0-19.002,15.469-34.462,34.482-34.462h14.677h206.913h14.675 C358.685,423.385,374.154,438.844,374.154,457.846z M324.995,364.308c10.818,0,19.62,8.834,19.62,19.692 s-8.802,19.692-19.62,19.692H118.082c-10.818,0-19.62-8.834-19.62-19.692s8.802-19.692,19.62-19.692h29.697h147.519H324.995z M295.298,305.231c10.906,0,19.779,8.834,19.779,19.692s-8.873,19.692-19.779,19.692H147.779 c-10.906,0-19.779-8.834-19.779-19.692s8.873-19.692,19.779-19.692h39.298H256H295.298z M250.731,285.538h-44.224l94.186-128.435 c6.764,7.288,14.667,13.5,23.431,18.346L250.731,285.538z"/></symbol><symbol id="suspension" viewBox="0 0 512 512"><title>suspension</title><path d="M476.69,229.517h-52.966v-17.658c14.607-0.028,26.483-11.895,26.483-26.48c0-6.786-2.593-12.964-6.813-17.655 c4.22-4.691,6.813-10.869,6.813-17.655s-2.593-12.964-6.813-17.655c4.22-4.691,6.813-10.869,6.813-17.655 c0-6.786-2.593-12.964-6.813-17.655c4.22-4.691,6.813-10.869,6.813-17.655c0-14.602-11.903-26.483-26.534-26.483h-8.776V39.724 c0-17.037-13.899-30.897-30.983-30.897h-8.655c-17.084,0-30.983,13.86-30.983,30.897v13.241H335.5 c-14.631,0-26.534,11.88-26.534,26.483c0,6.786,2.593,12.964,6.813,17.655c-4.22,4.691-6.813,10.869-6.813,17.655 c0,6.786,2.593,12.964,6.813,17.655c-4.22,4.691-6.813,10.869-6.813,17.655s2.593,12.964,6.813,17.655 c-4.22,4.691-6.813,10.869-6.813,17.655c0,14.585,11.876,26.452,26.483,26.48v17.658h-88.276v-70.621 c0-4.875-3.953-8.828-8.828-8.828h-44.138V79.532c0-0.022-0.002-0.044-0.002-0.067c0-0.016-0.001-0.032-0.001-0.048 c-0.062-29.2-23.777-52.935-52.922-52.935h-88.36c-29.143,0-52.858,23.736-52.92,52.935c0,0.016-0.001,0.032-0.001,0.048 C0.002,79.488,0,79.51,0,79.532v370.59c0,29.252,23.741,53.05,52.922,53.05h88.36c29.183,0,52.924-23.797,52.924-53.05v-52.881 h44.138c4.875,0,8.828-3.953,8.828-8.828v-70.621H476.69c19.47,0,35.31-15.847,35.31-35.325v-17.625 C512,245.364,496.16,229.517,476.69,229.517z M176.552,128.757l-42.638,42.638c-3.448,3.448-3.448,9.037,0,12.485 c1.722,1.723,3.983,2.585,6.241,2.585s4.519-0.862,6.241-2.585l30.155-30.155v5.171v22.827l-42.638,42.638 c-3.448,3.448-3.448,9.037,0,12.485c1.722,1.723,3.983,2.585,6.241,2.585s4.519-0.862,6.241-2.585l30.155-30.155v27.998 l-42.638,42.638c-3.448,3.448-3.448,9.037,0,12.485c1.722,1.723,3.983,2.585,6.241,2.585s4.52-0.862,6.241-2.585l30.155-30.155 v27.998l-42.638,42.638c-3.448,3.448-3.448,9.037,0,12.484c1.722,1.724,3.983,2.586,6.241,2.586s4.52-0.862,6.241-2.586 l30.155-30.154v27.998l-42.638,42.639c-3.448,3.446-3.448,9.037,0,12.483c1.722,1.724,3.983,2.586,6.241,2.586 s4.52-0.862,6.241-2.586l30.155-30.155v22.828v5.172l-42.638,42.638c-3.448,3.446-3.448,9.037,0,12.483 c1.722,1.724,3.983,2.586,6.241,2.586s4.52-0.862,6.241-2.586l30.155-30.155v31.571c0,19.517-15.821,35.394-35.269,35.394h-88.36 c-19.446,0-35.267-15.877-35.267-35.394v-31.571l30.155,30.155c1.722,1.724,3.983,2.586,6.241,2.586s4.519-0.862,6.241-2.586 c3.448-3.446,3.448-9.037,0-12.483l-42.638-42.638v-28l30.155,30.155c1.722,1.724,3.983,2.586,6.241,2.586 s4.519-0.862,6.241-2.586c3.448-3.446,3.448-9.037,0-12.483L17.655,340.62v-27.998l30.155,30.155 c1.722,1.724,3.983,2.586,6.241,2.586s4.519-0.862,6.241-2.586c3.448-3.447,3.448-9.036,0-12.484l-42.638-42.638v-27.998 l30.155,30.155c1.722,1.723,3.983,2.585,6.241,2.585s4.519-0.862,6.241-2.585c3.448-3.448,3.448-9.037,0-12.485l-42.638-42.638 v-27.998l30.155,30.155c1.722,1.723,3.983,2.585,6.241,2.585s4.519-0.862,6.241-2.585c3.448-3.448,3.448-9.037,0-12.485 l-42.638-42.638v-27.998L47.81,183.88c1.722,1.723,3.983,2.585,6.241,2.585s4.519-0.862,6.241-2.585 c3.448-3.448,3.448-9.037,0-12.485l-42.638-42.638V100.76l30.155,30.155c1.722,1.723,3.983,2.585,6.241,2.585 s4.519-0.862,6.241-2.585c3.448-3.448,3.448-9.037,0-12.485L17.835,75.972c1.785-17.85,16.838-31.834,35.087-31.834h88.36 c18.251,0,33.305,13.983,35.089,31.834l-42.458,42.458c-3.448,3.448-3.448,9.037,0,12.485c1.722,1.723,3.983,2.585,6.241,2.585 s4.519-0.862,6.241-2.585l30.155-30.155V128.757z M229.517,238.345v70.621v70.621h-35.31V167.724h35.31V238.345z M361.931,39.724 c0-7.302,5.978-13.241,13.328-13.241h8.655c7.349,0,13.327,5.94,13.327,13.241v13.241h-35.31V39.724z M335.5,70.621h17.604h52.966 h17.604c4.978,0,8.879,3.877,8.879,8.828c0,4.867-3.983,8.828-8.879,8.828H335.5c-4.979,0-8.879-3.877-8.879-8.828 C326.621,74.581,330.603,70.621,335.5,70.621z M335.5,105.931h88.172c4.979,0,8.879,3.877,8.879,8.828 c0,4.868-3.983,8.828-8.879,8.828H335.5c-4.979,0-8.879-3.877-8.879-8.828C326.621,109.891,330.603,105.931,335.5,105.931z M335.5,141.241h88.172c4.979,0,8.879,3.877,8.879,8.828c0,4.868-3.983,8.828-8.879,8.828H335.5c-4.979,0-8.879-3.877-8.879-8.828 C326.621,145.201,330.603,141.241,335.5,141.241z M326.621,185.379c0-4.868,3.983-8.828,8.879-8.828h88.172 c4.979,0,8.879,3.877,8.879,8.828c0,4.867-3.983,8.828-8.879,8.828h-8.776h-70.621H335.5 C330.522,194.207,326.621,190.33,326.621,185.379z M406.069,211.862v17.655h-52.966v-17.655H406.069z M494.345,282.468 c0,9.743-7.92,17.67-17.655,17.67H247.172v-52.966h97.103h70.621h61.793c9.735,0,17.655,7.927,17.655,17.67V282.468z"/></symbol><symbol id="car-side-view" viewBox="0 0 479.165 479.165"><title>car-side-view</title><path d="M454.802,195.404c-9.625-13.042-14.316-20.965-39.703-38.896c-24.699-17.445-67.108-38.24-128.878-38.24 c-68.672,0-110.937,21.8-134.3,40.088c-19.219,15.044-29.273,30.28-33.354,37.528c-37.676,0.136-64.132,0.226-67.988,0.226 c-58.657,0-77.115,112.434,3.828,112.434c3.374,0,5.621,0.158,11.521,0.268c1.302-31.836,27.595-57.336,59.742-57.336 c32.183,0,58.495,25.554,59.746,57.434c52.424,0,107.127,0,124.674,0c0.903-32.383,27.508-58.453,60.104-58.453 c32.541,0,59.109,25.979,60.1,58.282C505.379,303.968,477.33,225.929,454.802,195.404z M143.094,195.794 c4.851-6.312,12.107-14.271,22.407-22.176c26.072-20.01,61.277-31.768,102.596-34.4v56.111 C224.728,195.491,180.375,195.657,143.094,195.794z M263.622,234.78h-21.527c-2.798,0-5.064-2.268-5.064-5.065 c0-2.798,2.267-5.065,5.064-5.065h21.527c2.798,0,5.064,2.268,5.064,5.065S266.42,234.78,263.622,234.78z M370.148,194.942 c-26.501,0.101-57.161,0.217-88.803,0.336v-56.586c1.618-0.027,3.241-0.042,4.875-0.042c30.808,0,58.899,5.378,83.928,16.028 V194.942z M383.397,194.891V160.96c6.609,3.47,12.981,7.339,19.106,11.61c11.36,7.922,19.825,15.905,25.612,22.15 C416.305,194.765,401.026,194.824,383.397,194.891z"/><path d="M125.672,261.666c-27.355,0-49.613,22.257-49.613,49.615s22.258,49.615,49.613,49.615 c27.357,0,49.615-22.257,49.615-49.615S153.029,261.666,125.672,261.666z M125.672,337.329 c-14.361,0-26.046-11.685-26.046-26.048c0-14.362,11.685-26.048,26.046-26.048c14.363,0,26.048,11.686,26.048,26.048 C151.719,325.645,140.035,337.329,125.672,337.329z"/><path d="M370.195,260.987c-27.357,0-49.615,22.257-49.615,49.615c0,27.357,22.258,49.615,49.615,49.615 c27.36,0,49.616-22.258,49.616-49.615C419.812,283.243,397.556,260.987,370.195,260.987z M370.195,336.649 c-14.361,0-26.048-11.686-26.048-26.049c0-14.362,11.687-26.047,26.048-26.047c14.364,0,26.048,11.685,26.048,26.047 C396.243,324.966,384.56,336.649,370.195,336.649z"/></symbol><symbol id="engine" viewBox="0 0 512 512"><title>engine</title><g> <g> <path d="M390,211v-15c0-8.291-6.709-15-15-15h-23.789l-25.605-25.605C322.793,152.582,318.984,151,315,151h-15v-30h15 c8.291,0,15-6.709,15-15s-6.709-15-15-15c-32.783,0-117.635,0-150,0c-8.291,0-15,6.709-15,15s6.709,15,15,15h15v30h-15 c-3.984,0-7.793,1.582-10.605,4.395l-30,30C121.582,188.207,120,192.016,120,196v150c0,3.984,1.582,7.793,4.395,10.605l60,60 C187.207,419.418,191.016,421,195,421h150c5.684,0,10.869-3.208,13.418-8.291l30-60c1.04-2.08,1.582-4.38,1.582-6.709h32V211H390z M298.418,292.709l-30,60c-3.686,7.351-12.64,10.427-20.127,6.709c-7.412-3.706-10.415-12.715-6.709-20.127L260.728,301H225 c-11.106,0-18.418-11.741-13.418-21.709l30-60c3.706-7.397,12.715-10.4,20.127-6.709c7.412,3.706,10.415,12.715,6.709,20.127 L249.272,271H285C296.106,271,303.418,282.741,298.418,292.709z"/> </g> </g><g> <g> <path d="M75,181c-8.291,0-15,6.709-15,15v60H30v-60c0-8.291-6.709-15-15-15s-15,6.709-15,15v150c0,8.291,6.709,15,15,15 s15-6.709,15-15v-60h30v60c0,8.291,6.709,15,15,15h15V181H75z"/> </g> </g><g> <g> <path d="M482,181h-15c-8.284,0-15,6.716-15,15v180c0,8.284,6.716,15,15,15h15c16.569,0,30-13.431,30-30V211 C512,194.431,498.569,181,482,181z"/> </g> </g></symbol><symbol id="gauge" viewBox="0 0 512 512"><title>gauge</title><g> <g> <path d="M248.327,242.768C244.373,245.581,242,250.151,242,255c0,8.276,6.724,15,15,15c4.849,0,9.419-2.373,12.231-6.328 l51.39-72.294L248.327,242.768z"/> </g> </g><g> <g> <path d="M287,392h-62c-8.276,0-15,6.724-15,15s6.724,15,15,15h62c8.276,0,15-6.724,15-15S295.276,392,287,392z"/> </g> </g><g> <g> <path d="M257,0C116.39,0,0,114.39,0,255s114.39,257,255,257s257-116.39,257-257S397.61,0,257,0z M287,452h-62 c-24.814,0-45-20.186-45-45c0-24.814,20.186-45,45-45h62c24.814,0,45,20.186,45,45C332,431.814,311.814,452,287,452z M394.827,394.827c-5.859,5.859-15.352,5.859-21.211,0l-21.211-21.211c-5.859-5.859-5.859-15.352,0-21.211s15.352-5.859,21.211,0 l10.137,10.137c21.542-25.759,33.924-59.184,36.947-92.542H407c-8.291,0-15-6.709-15-15c0-8.291,6.709-15,15-15h14.24 c-3.01-33.204-15.886-63.567-35.684-88.182l-91.862,129.227C285.257,292.91,271.546,300,257,300c-24.814,0-45-20.186-45-45 c0-14.546,7.09-28.257,18.955-36.694l129.227-91.862c-23.403-18.823-52.001-31.389-83.296-35.168 c-1.621-0.196-3.25-0.368-4.886-0.516V105c0,8.291-6.709,15-15,15c-8.291,0-15-6.709-15-15V90.76 c-34.243,3.105-67.497,16.663-92.507,37.522l10.102,10.102c5.859,5.859,5.859,15.352,0,21.211c-5.86,5.86-15.351,5.86-21.211,0 l-10.102-10.102c-20.86,25.01-34.417,56.264-37.522,90.507H105c8.291,0,15,6.709,15,15s-6.709,15-15,15H91.296 c3.016,33.408,15.385,66.85,36.892,92.601l10.195-10.195c5.859-5.859,15.352-5.859,21.211,0s5.859,15.352,0,21.211l-21.27,21.27 c-5.86,5.86-15.351,5.86-21.211,0C80.288,358.06,60,307.09,60,255c0-107.238,89.272-195,197-195c107.336,0,195,87.678,195,195 C452,307.017,431.697,357.957,394.827,394.827z"/> </g> </g></symbol><symbol id="gearshift" viewBox="0 0 512 512"><title>gearshift</title><path d="M473.5,424.763V87.237c17.422-6.213,30-22.707,30-42.237c0-24.814-20.186-45-45-45c-24.814,0-45,20.186-45,45 c0,19.53,12.578,36.024,30,42.237V242h-105V87.237c17.422-6.213,30-22.707,30-42.237c0-24.814-20.186-45-45-45 c-24.814,0-45,20.186-45,45c0,19.53,12.578,36.024,30,42.237V242h-105V87.237c17.422-6.213,30-22.707,30-42.237 c0-24.814-20.186-45-45-45c-24.814,0-45,20.186-45,45c0,19.53,12.578,36.024,30,42.237V242h-90c-8.276,0-15-6.724-15-15V87.237 c17.422-6.213,30-22.707,30-42.237c0-24.814-20.186-45-45-45c-24.814,0-45,20.186-45,45c0,19.53,12.578,36.024,30,42.237V227 c0,24.814,20.186,45,45,45h90v152.763c-17.422,6.213-30,22.707-30,42.237c0,24.814,20.186,45,45,45c24.814,0,45-20.186,45-45 c0-19.53-12.578-36.024-30-42.237V272h105v152.763c-17.422,6.213-30,22.707-30,42.237c0,24.814,20.186,45,45,45 c24.814,0,45-20.186,45-45c0-19.53-12.578-36.024-30-42.237V272h105v152.763c-17.422,6.213-30,22.707-30,42.237 c0,24.814,20.186,45,45,45c24.814,0,45-20.186,45-45C503.5,447.47,490.922,430.976,473.5,424.763z"/></symbol><symbol id="gearbox" viewBox="0 0 512 512"><title>gearbox</title><g> <g> <path d="M460.699,0H51.301C23.014,0,0,23.014,0,51.301V460.7C0,488.987,23.014,512,51.301,512h409.397 C488.986,512,512,488.987,512,460.7V51.301C512,23.014,488.986,0,460.699,0z M491.52,460.7c0,16.995-13.826,30.82-30.821,30.82 H51.301c-16.995,0-30.821-13.825-30.821-30.82V51.301c0-16.995,13.826-30.821,30.821-30.821h409.397 c16.995,0,30.821,13.826,30.821,30.821V460.7z"/> </g> </g><g> <g> <path d="M430.08,366.666V145.334c18.346-10.64,30.72-30.482,30.72-53.174c0-33.879-27.561-61.44-61.44-61.44 s-61.44,27.561-61.44,61.44c0,22.692,12.374,42.534,30.72,53.174v69.706h-81.92v-69.706c18.346-10.64,30.72-30.482,30.72-53.174 c0-33.879-27.561-61.44-61.44-61.44s-61.44,27.561-61.44,61.44c0,22.692,12.374,42.534,30.72,53.174v69.706h-81.92v-69.706 c18.346-10.64,30.72-30.482,30.72-53.174c0-33.879-27.561-61.44-61.44-61.44S51.2,58.281,51.2,92.16 c0,22.692,12.374,42.534,30.72,53.174v221.331C63.574,377.306,51.2,397.149,51.2,419.84c0,33.878,27.561,61.44,61.44,61.44 s61.44-27.563,61.44-61.44c0-22.691-12.374-42.534-30.72-53.174V276.48h81.92v90.186c-18.346,10.641-30.72,30.483-30.72,53.174 c0,33.878,27.561,61.44,61.44,61.44s61.44-27.563,61.44-61.44c0-22.691-12.374-42.534-30.72-53.174V276.48h81.92v90.186 c-18.346,10.641-30.72,30.484-30.72,53.174c0,33.878,27.561,61.44,61.44,61.44s61.44-27.563,61.44-61.44 C460.8,397.149,448.426,377.306,430.08,366.666z M358.4,92.16c0-22.585,18.375-40.96,40.96-40.96s40.96,18.375,40.96,40.96 s-18.375,40.96-40.96,40.96S358.4,114.745,358.4,92.16z M215.04,92.16c0-22.585,18.375-40.96,40.96-40.96 s40.96,18.375,40.96,40.96s-18.375,40.96-40.96,40.96S215.04,114.745,215.04,92.16z M71.68,92.16 c0-22.585,18.375-40.96,40.96-40.96s40.96,18.375,40.96,40.96s-18.375,40.96-40.96,40.96S71.68,114.745,71.68,92.16z M153.6,419.84c0,22.585-18.375,40.96-40.96,40.96s-40.96-18.375-40.96-40.96s18.375-40.96,40.96-40.96 S153.6,397.255,153.6,419.84z M296.96,419.84c0,22.585-18.375,40.96-40.96,40.96s-40.96-18.375-40.96-40.96 s18.375-40.96,40.96-40.96S296.96,397.255,296.96,419.84z M276.48,256c-5.655,0-10.24,4.585-10.24,10.24v93.029 c-3.333-0.562-6.75-0.869-10.24-0.869s-6.907,0.308-10.24,0.869V266.24c0-5.655-4.585-10.24-10.24-10.24h-102.4 c-5.655,0-10.24,4.585-10.24,10.24v92.16H102.4V152.731c3.333,0.562,6.75,0.869,10.24,0.869s6.907-0.308,10.24-0.869v72.549 c0,5.655,4.585,10.24,10.24,10.24h102.4c5.655,0,10.24-4.585,10.24-10.24v-72.549c3.333,0.562,6.75,0.869,10.24,0.869 s6.907-0.308,10.24-0.869v72.549c0,5.655,4.585,10.24,10.24,10.24h102.4c5.655,0,10.24-4.585,10.24-10.24v-72.549 c3.333,0.562,6.75,0.869,10.24,0.869s6.907-0.308,10.24-0.869v206.539c-3.333-0.562-6.75-0.869-10.24-0.869 s-6.907,0.308-10.24,0.869V266.24c0-5.655-4.585-10.24-10.24-10.24H276.48z M399.36,460.8c-22.585,0-40.96-18.375-40.96-40.96 s18.375-40.96,40.96-40.96s40.96,18.375,40.96,40.96S421.945,460.8,399.36,460.8z"/> </g> </g></symbol><symbol id="steering-wheel" viewBox="0 0 512 512"><title>steering-wheel</title><g> <g> <path d="M256,0C114.842,0,0,114.842,0,256s114.842,256,256,256s256-114.842,256-256S397.158,0,256,0z M256,494.345 C124.576,494.345,17.655,387.424,17.655,256S124.576,17.655,256,17.655S494.345,124.576,494.345,256S387.424,494.345,256,494.345z "/> </g> </g><g> <g> <path d="M256,52.966C144.046,52.966,52.966,144.046,52.966,256c0,65.632,31.312,124.079,79.772,161.219 c0.583,2.135,1.954,4.057,4.009,5.274c1.551,0.918,3.267,1.299,4.939,1.213c32.582,22.279,71.95,35.329,114.314,35.329 c42.375,0,81.754-13.057,114.342-35.348c0.198,0.013,0.395,0.038,0.594,0.038c1.528,0,3.076-0.398,4.486-1.232 c2.111-1.249,3.508-3.24,4.062-5.444c48.334-37.148,79.55-95.517,79.55-161.048C459.034,144.046,367.954,52.966,256,52.966z M256,70.621c61.218,0,115.576,29.845,149.354,75.729c-29.509-5.26-87.542-13.936-149.354-13.936s-119.845,8.677-149.354,13.936 C140.424,100.465,194.782,70.621,256,70.621z M70.621,256c0-5.837,0.305-11.602,0.835-17.302 c16.941,3.682,54.684,16.465,60.858,39.818c4.599,17.399-8.92,40.27-39.033,66.213C78.844,318.359,70.621,288.124,70.621,256z M256,441.379c-37.551,0-72.507-11.255-101.736-30.523c15.15-22.946,59.576-84.236,101.821-84.236 c42.197,0,86.571,61.154,101.769,84.16C328.602,430.095,293.601,441.379,256,441.379z M372.154,400.329 c-17.021-25.755-65.36-91.364-116.069-91.364c-50.767,0-99.158,65.758-116.128,91.451c-14.349-11.553-26.965-25.171-37.346-40.437 c0.063-0.051,0.133-0.085,0.195-0.137c37.561-31.784,53.232-60.664,46.577-85.839c-4.592-17.367-19.251-31.643-43.571-42.431 c-14.122-6.264-27.293-9.402-31.866-10.384c3.693-19.354,10.381-37.653,19.601-54.381c15.849-3.253,86.164-16.738,162.453-16.738 c76.212,0,146.593,13.487,162.453,16.739c9.248,16.776,15.945,35.134,19.631,54.55c-5.151,1.142-17.687,4.267-31.094,10.214 c-24.32,10.788-38.98,25.063-43.571,42.431c-6.636,25.103,8.931,53.892,46.26,85.568 C399.271,374.965,386.587,388.691,372.154,400.329z M380.483,278.539c6.039-22.922,42.754-35.726,60.075-39.664 c0.52,5.643,0.822,11.349,0.822,17.125c0,31.933-8.116,62.005-22.393,88.264C389.265,318.524,375.927,295.83,380.483,278.539z"/> </g> </g><g> <g> <path d="M256,185.379c-29.206,0-52.966,23.76-52.966,52.966c0,29.206,23.76,52.966,52.966,52.966s52.966-23.76,52.966-52.966 C308.966,209.139,285.206,185.379,256,185.379z M256,273.655c-19.47,0-35.31-15.84-35.31-35.31c0-19.47,15.84-35.31,35.31-35.31 s35.31,15.84,35.31,35.31C291.31,257.815,275.47,273.655,256,273.655z"/> </g> </g></symbol><symbol id="work" viewBox="0 0 512 512"><title>work</title><g> <g> <path d="M494.353,46.611l-30.766-30.766c-20.064-20.064-53.872-21.231-75.366-2.6l-54.071,46.87 c-0.692,0.6-1.286,1.306-1.758,2.091l-52.635,87.676l-33.796,11.265c-2.856,0.952-5.015,3.315-5.706,6.244 c-0.691,2.929,0.183,6.007,2.311,8.136l92.105,92.104c1.648,1.647,3.865,2.543,6.141,2.543c0.665,0,1.334-0.076,1.995-0.232 c2.929-0.691,5.292-2.85,6.244-5.706l11.268-33.807l88.965-53.72c0.783-0.474,1.487-1.067,2.085-1.761l45.76-53.029 C515.656,100.451,514.409,66.668,494.353,46.611z M483.981,110.572l-44.857,51.982l-90.52,54.659 c-1.767,1.067-3.096,2.729-3.749,4.689l-7.837,23.512l-20.755-20.755c-0.004-0.004-0.007-0.009-0.011-0.013l-30.703-30.701 c-0.003-0.003-0.007-0.005-0.01-0.008l-20.757-20.757l23.512-7.837c1.966-0.656,3.633-1.992,4.699-3.768l53.578-89.243 l53.026-45.964c14.753-12.79,37.949-12.002,51.708,1.759l30.767,30.766C495.838,72.657,496.694,95.841,483.981,110.572z"/> </g> </g><g> <g> <path d="M469.736,348.922c-25.496-25.495-63.021-34.357-97.02-23.335L188.164,141.035c11.021-33.999,2.159-71.525-23.335-97.021 C137.969,17.156,97.758,8.754,62.384,22.618c-2.727,1.069-4.733,3.441-5.332,6.309c-0.599,2.867,0.288,5.844,2.36,7.916 l55.241,55.24L77.81,128.925L22.57,73.684c-2.073-2.071-5.046-2.956-7.916-2.36c-2.868,0.599-5.241,2.604-6.309,5.332 c-13.862,35.372-5.463,75.584,21.396,102.445c25.496,25.495,63.021,34.359,97.02,23.335l69.008,69.008l-85.937,85.939 l-54.658,30.56c-1.52,0.85-2.75,2.138-3.529,3.696l-24.561,49.122c-1.672,3.343-1.017,7.381,1.626,10.025l30.701,30.702 c1.667,1.667,3.89,2.543,6.143,2.543c1.319,0,2.648-0.3,3.882-0.917l49.122-24.561c1.558-0.779,2.846-2.009,3.696-3.529 l30.56-54.659l85.939-85.936l72.561,72.561c-11.022,33.999-2.159,71.525,23.336,97.021c18.263,18.262,42.696,27.99,67.586,27.99 c11.716-0.001,23.536-2.157,34.858-6.593c2.727-1.069,4.733-3.441,5.332-6.309c0.599-2.867-0.288-5.844-2.36-7.916l-55.241-55.241 l36.842-36.841l55.24,55.24c2.072,2.072,5.047,2.961,7.916,2.36c2.868-0.599,5.241-2.604,6.309-5.332 C504.995,415.995,496.596,375.783,469.736,348.922z M139.68,388.935c-0.565,0.565-1.048,1.205-1.438,1.903l-29.843,53.376 L67.267,464.78l-21.85-21.85l20.565-41.133l53.375-29.842c0.698-0.39,1.338-0.873,1.903-1.438l86.789-86.79l18.421,18.421 L139.68,388.935z M478.86,431.73l-51.052-51.052c-3.392-3.39-8.889-3.39-12.281,0l-49.122,49.122 c-1.628,1.629-2.543,3.837-2.543,6.141s0.915,4.511,2.543,6.141l51.053,51.053c-25.314,5.03-51.861-2.739-70.527-21.405 c-21.977-21.977-28.85-54.882-17.507-83.827c1.259-3.214,0.496-6.868-1.944-9.309L135.157,186.272 c-1.66-1.659-3.881-2.543-6.143-2.543c-1.064,0-2.138,0.196-3.166,0.599c-28.944,11.344-61.849,4.469-83.827-17.506 c-18.667-18.668-26.437-45.216-21.404-70.528l51.052,51.053c3.392,3.391,8.889,3.389,12.281,0l49.122-49.122 c3.391-3.392,3.391-8.889,0-12.281L82.02,34.891c25.314-5.04,51.859,2.736,70.527,21.405 c21.977,21.977,28.85,54.882,17.507,83.827c-1.259,3.214-0.496,6.868,1.944,9.309l192.321,192.32 c2.442,2.44,6.098,3.203,9.309,1.944c28.946-11.34,61.849-4.47,83.827,17.506C476.124,379.87,483.892,406.419,478.86,431.73z"/> </g> </g></symbol></svg>